<svg width="13" height="25" viewBox="0 0 13 25" fill="none" xmlns="http://www.w3.org/2000/svg">
<path d="M0.403271 13.315H3.14365V24.5968C3.14365 24.8195 3.32412 25 3.54688 25H8.19331C8.41606 25 8.59653 24.8195 8.59653 24.5968V13.3682H11.7469C11.9517 13.3682 12.1241 13.2145 12.1475 13.011L12.6259 8.85762C12.6391 8.74336 12.6029 8.62891 12.5264 8.54316C12.4499 8.45737 12.3404 8.40825 12.2254 8.40825H8.59673V5.80469C8.59673 5.01987 9.01929 4.62187 9.85288 4.62187C9.97168 4.62187 12.2254 4.62187 12.2254 4.62187C12.4482 4.62187 12.6287 4.44131 12.6287 4.21865V0.406201C12.6287 0.183447 12.4482 0.00297852 12.2254 0.00297852H8.95566C8.93262 0.00185547 8.8814 0 8.80591 0C8.23857 0 6.26655 0.111377 4.70879 1.54443C2.98281 3.13252 3.22275 5.03394 3.28008 5.36362V8.40815H0.403223C0.180469 8.40815 0 8.58862 0 8.81138V12.9117C4.88281e-05 13.1344 0.180517 13.315 0.403271 13.315Z" fill="#737380"/>
</svg>
