<svg width="26" height="25" viewBox="0 0 26 25" fill="none" xmlns="http://www.w3.org/2000/svg">
<path d="M3.21026 0H21.7932C23.5587 0 25.002 1.44378 25.002 3.20926V21.7922C25.002 23.5572 23.5587 25 21.7932 25H3.21026C1.44478 25 0 23.5571 0 21.7922V3.20926C0 1.44378 1.44478 0 3.21026 0ZM18.2136 2.77664C17.5937 2.77664 17.0881 3.28426 17.0881 3.90381V6.59686C17.0881 7.21666 17.5937 7.72312 18.2136 7.72312H21.0391C21.658 7.72312 22.1647 7.21666 22.1647 6.59686V3.90381C22.1647 3.28426 21.658 2.77664 21.0391 2.77664H18.2136ZM22.1754 10.5722H19.9756C20.1842 11.2535 20.2973 11.972 20.2973 12.7189C20.2973 16.8761 16.8165 20.2479 12.5245 20.2479C8.23357 20.2479 4.75271 16.8761 4.75271 12.7189C4.75271 11.972 4.86689 11.2535 5.07449 10.5722H2.77939V21.134C2.77939 21.681 3.22601 22.1259 3.77247 22.1259H21.1828C21.7297 22.1259 22.1754 21.681 22.1754 21.134V10.5722ZM12.5246 7.58111C9.7527 7.58111 7.50418 9.75861 7.50418 12.4472C7.50418 15.133 9.7527 17.3121 12.5246 17.3121C15.298 17.3121 17.5466 15.133 17.5466 12.4472C17.5466 9.75853 15.298 7.58111 12.5246 7.58111Z" fill="#737380"/>
</svg>
