<svg width="31" height="25" viewBox="0 0 31 25" fill="none" xmlns="http://www.w3.org/2000/svg">
<path d="M28.2387 0.220707C28.2387 0.220707 31.0139 -0.861435 30.7827 1.76663C30.7056 2.84878 30.0118 6.63628 29.4722 10.733L27.622 22.8685C27.622 22.8685 27.4679 24.6463 26.0802 24.9555C24.6926 25.2646 22.6112 23.8733 22.2257 23.5641C21.9174 23.3323 16.4441 19.8539 14.5168 18.1534C13.9772 17.6896 13.3604 16.7621 14.5939 15.6799L22.6883 7.95035C23.6134 7.02278 24.5384 4.8585 20.6839 7.48657L9.89145 14.8297C9.89145 14.8297 8.65803 15.6026 6.34538 14.907L1.33454 13.3611C1.33454 13.3611 -0.515605 12.2016 2.64506 11.0421C10.354 7.40921 19.836 3.699 28.2387 0.220707Z" fill="#737380"/>
</svg>
