<svg width="31" height="25" viewBox="0 0 31 25" fill="none" xmlns="http://www.w3.org/2000/svg">
<path d="M29.9974 2.8852C29.5177 3.09793 29.0245 3.2775 28.5206 3.42332C29.1172 2.74857 29.5721 1.95466 29.8497 1.0859C29.912 0.891181 29.8475 0.678032 29.6874 0.550644C29.5275 0.423196 29.3054 0.407929 29.1294 0.512237C28.0592 1.14697 26.9046 1.60315 25.6939 1.86985C24.4744 0.678211 22.818 0 21.1057 0C17.4912 0 14.5506 2.94055 14.5506 6.55489C14.5506 6.83954 14.5686 7.12265 14.6043 7.40182C10.1191 7.00802 5.9493 4.80348 3.08592 1.29106C2.98388 1.16588 2.82667 1.09837 2.66571 1.11131C2.50468 1.12389 2.35994 1.21472 2.27859 1.35433C1.69783 2.35084 1.39081 3.49059 1.39081 4.65027C1.39081 6.22974 1.9547 7.72828 2.95084 8.89928C2.64794 8.79438 2.35404 8.66329 2.0735 8.50758C1.92291 8.42373 1.7391 8.42504 1.58947 8.5108C1.43977 8.59662 1.3459 8.75436 1.34191 8.92684C1.34119 8.95588 1.34119 8.98493 1.34119 9.01439C1.34119 11.372 2.61007 13.4946 4.55005 14.6514C4.38336 14.6348 4.21685 14.6106 4.05135 14.579C3.88073 14.5464 3.70533 14.6062 3.59029 14.7364C3.47506 14.8664 3.4369 15.0476 3.49003 15.2131C4.20808 17.455 6.05682 19.1039 8.29178 19.6067C6.43809 20.7677 4.3183 21.3759 2.093 21.3759C1.62865 21.3759 1.16168 21.3486 0.704668 21.2945C0.477624 21.2675 0.260539 21.4016 0.183188 21.6175C0.105836 21.8335 0.18784 22.0744 0.38095 22.1982C3.23973 24.0312 6.54526 25 9.94008 25C16.6138 25 20.7888 21.8529 23.1158 19.2128C26.0177 15.9208 27.6819 11.5635 27.6819 7.25821C27.6819 7.07834 27.6791 6.89674 27.6736 6.71567C28.8185 5.85312 29.8041 4.8092 30.6062 3.60939C30.728 3.4272 30.7149 3.18632 30.5737 3.01861C30.4329 2.85061 30.1979 2.79634 29.9974 2.8852Z" fill="#737380"/>
</svg>
