<svg width="12" height="10" viewBox="0 0 12 10" fill="none" xmlns="http://www.w3.org/2000/svg">
<path d="M7.47834 9.78405L11.8087 5.45371C11.9322 5.3302 12 5.16541 12 4.98619C12 4.81049 11.9322 4.6458 11.8087 4.52229L7.47834 0.191854C7.22244 -0.0639512 6.80595 -0.0639512 6.55024 0.191854L6.15688 0.585024C6.03346 0.708537 5.96556 0.873317 5.96556 1.04912C5.96556 1.22483 6.03346 1.39527 6.15688 1.51868L8.68332 4.05058L0.656879 4.05058C0.295123 4.05058 4.47035e-07 4.3339 4.47035e-07 4.69566L4.47035e-07 5.25176C4.47035e-07 5.61351 0.295123 5.92551 0.656879 5.92551L8.71181 5.92551L6.15688 8.47176C6.03346 8.59517 5.96556 8.75556 5.96556 8.93137C5.96556 9.10717 6.03346 9.26951 6.15688 9.39312L6.55024 9.78512C6.80605 10.041 7.22244 10.04 7.47834 9.78405Z" fill="#363635"/>
</svg>
