<svg width="22" height="22" viewBox="0 0 22 22" fill="none" xmlns="http://www.w3.org/2000/svg">
<path d="M20.223 2.04244C19.071 0.732095 17.5459 0.0159152 15.9182 0.0159152C14.2904 0.0159152 12.7606 0.7374 11.6086 2.04775L11.007 2.7321L10.396 2.03714C9.24402 0.726791 7.70957 0 6.08184 0C4.45878 0 2.929 0.721485 1.78166 2.02653C0.629661 3.33687 -0.00463843 5.07692 2.55386e-05 6.92838C2.55386e-05 8.77984 0.638989 10.5146 1.79099 11.8249L10.5499 21.7878C10.6712 21.9257 10.8344 22 10.993 22C11.1516 22 11.3148 21.931 11.4361 21.7931L20.2137 11.8462C21.3657 10.5358 22 8.79576 22 6.9443C22.0046 5.09284 21.375 3.35279 20.223 2.04244ZM19.3275 10.8329L10.993 20.2759L2.67714 10.817C1.76301 9.77719 1.2593 8.39788 1.2593 6.92838C1.2593 5.45889 1.75834 4.07958 2.67248 3.04509C3.58195 2.01061 4.79459 1.43767 6.08184 1.43767C7.37376 1.43767 8.59106 2.01061 9.5052 3.0504L10.5593 4.24934C10.8064 4.5305 11.2029 4.5305 11.4501 4.24934L12.4948 3.06101C13.4089 2.02122 14.6262 1.44828 15.9135 1.44828C17.2007 1.44828 18.4134 2.02122 19.3275 3.0557C20.2417 4.09549 20.7407 5.4748 20.7407 6.9443C20.7454 8.41379 20.2417 9.7931 19.3275 10.8329Z" fill="black"/>
</svg>
