<svg width="90" height="81" viewBox="0 0 90 81" fill="none" xmlns="http://www.w3.org/2000/svg">
<path d="M5.90239 30.1819C5.90239 25.4576 5.90456 22.0819 6.12074 19.4357C6.33431 16.822 6.74268 15.1662 7.4198 13.8373L2.45792 11.3091C1.31412 13.5539 0.812032 16.0241 0.570342 18.9822C0.331325 21.9078 0.333497 25.5495 0.333497 30.1819H5.90239ZM5.90239 36.8645V30.1819H0.333497V36.8645H5.90239ZM0.333497 36.8645V64.709H5.90239V36.8645H0.333497ZM0.333497 64.709V75.3656H5.90239V64.709H0.333497ZM0.333497 75.3656C0.333497 80.0791 6.03208 82.4392 9.36484 79.1068L5.42708 75.1685C5.44318 75.1523 5.5021 75.1117 5.58624 75.0972C5.65513 75.0849 5.70308 75.0972 5.73047 75.1083C5.75793 75.12 5.80014 75.1451 5.84046 75.2024C5.88963 75.272 5.90239 75.3428 5.90239 75.3656H0.333497ZM9.36484 79.1068L20.1624 68.3087L16.2246 64.3709L5.42708 75.1685L9.36484 79.1068ZM59.9206 61.9245H22.1313V67.4934H59.9206V61.9245ZM76.2653 60.407C74.936 61.0842 73.2804 61.4924 70.6669 61.7062C68.0206 61.9223 64.6447 61.9245 59.9206 61.9245V67.4934C64.5528 67.4934 68.1949 67.4957 71.1202 67.2568C74.0784 67.0151 76.5488 66.5127 78.7936 65.3689L76.2653 60.407ZM82.3493 54.323C81.0145 56.9426 78.8849 59.0721 76.2653 60.407L78.7936 65.3689C82.4607 63.5005 85.4428 60.5184 87.3112 56.8513L82.3493 54.323ZM83.8668 37.9783C83.8668 42.7024 83.8646 46.0783 83.6485 48.7246C83.4347 51.3381 83.0265 52.9937 82.3493 54.323L87.3112 56.8513C88.455 54.6065 88.9574 52.1361 89.1991 49.1779C89.438 46.2526 89.4357 42.6105 89.4357 37.9783H83.8668ZM83.8668 30.1819V37.9783H89.4357V30.1819H83.8668ZM82.3493 13.8373C83.0265 15.1662 83.4347 16.822 83.6485 19.4357C83.8646 22.0819 83.8668 25.4576 83.8668 30.1819H89.4357C89.4357 25.5495 89.438 21.9078 89.1991 18.9822C88.9574 16.0241 88.455 13.5539 87.3112 11.3091L82.3493 13.8373ZM76.2653 7.75305C78.8849 9.08786 81.0145 11.2177 82.3493 13.8373L87.3112 11.3091C85.4428 7.64161 82.4607 4.65981 78.7936 2.79117L76.2653 7.75305ZM59.9206 6.23564C64.6447 6.23564 68.0206 6.23781 70.6669 6.45399C73.2804 6.66756 74.936 7.07593 76.2653 7.75305L78.7936 2.79117C76.5488 1.64738 74.0784 1.14528 71.1202 0.903594C68.1949 0.664577 64.5528 0.666749 59.9206 0.666749V6.23564ZM29.8486 6.23564H59.9206V0.666749H29.8486V6.23564ZM13.504 7.75305C14.833 7.07593 16.4888 6.66756 19.1024 6.45399C21.7486 6.23781 25.1244 6.23564 29.8486 6.23564V0.666749C25.2162 0.666749 21.5745 0.664577 18.649 0.903594C15.6909 1.14528 13.2206 1.64738 10.9758 2.79117L13.504 7.75305ZM7.4198 13.8373C8.7546 11.2177 10.8844 9.08786 13.504 7.75305L10.9758 2.79117C7.30836 4.65981 4.32656 7.64161 2.45792 11.3091L7.4198 13.8373ZM20.1624 68.3087C20.6846 67.7869 21.3929 67.4934 22.1313 67.4934V61.9245C19.9159 61.9245 17.7912 62.8044 16.2246 64.3709L20.1624 68.3087Z" fill="#222222"/>
<path d="M25.3936 25.7268H64.3758" stroke="#222222" stroke-width="5" stroke-linecap="round" stroke-linejoin="round"/>
<path d="M25.3936 42.4333H53.238" stroke="#222222" stroke-width="5" stroke-linecap="round" stroke-linejoin="round"/>
</svg>
