<svg width="25" height="26" viewBox="0 0 25 26" fill="none" xmlns="http://www.w3.org/2000/svg">
<path d="M23.5741 8.47014C23.6734 8.2035 23.7675 7.84275 23.7937 7.4245C23.8302 6.68732 23.6473 5.65213 22.6068 4.71105C22.6748 4.23005 22.6748 3.46673 22.2513 2.70864C21.6919 1.70482 20.5992 1.02515 18.9994 0.685315C17.9276 0.455273 16.5212 0.408219 14.8168 0.538925C11.3818 0.470958 8.03578 0.894444 7.84757 0.920585L6.61893 1.06698C6.26341 0.816021 5.82947 0.66963 5.36416 0.66963H2.17494C0.97245 0.66963 0 1.64731 0 2.84457V11.3404C0 12.5429 0.977678 13.5154 2.17494 13.5154H5.36416C5.74059 13.5154 6.09088 13.4213 6.39935 13.254C6.61893 13.735 6.94308 14.2839 7.42408 14.7911C7.45022 14.8172 7.47636 14.8433 7.50773 14.8643C9.14939 16.1243 11.0838 20.6624 11.7687 22.5132C11.7008 23.0883 11.6328 24.3326 12.2079 25.007C12.4641 25.305 12.8196 25.4671 13.217 25.4671C13.6195 25.4671 15.0102 25.373 15.8781 24.1757C16.699 23.036 16.746 21.3316 16.0141 19.1044C15.3971 17.2326 15.3396 16.4014 15.3605 16.0668C15.6428 16.1295 15.9199 16.187 16.1866 16.2341H16.1918C16.2389 16.2445 17.3891 16.5007 18.7641 16.5634C20.7195 16.6575 22.1363 16.3177 22.9624 15.5596C24.1021 14.5192 23.9662 13.1912 23.6263 12.3443C23.9191 11.9626 24.2746 11.3404 24.306 10.5457C24.3269 9.82425 24.0864 9.1289 23.5741 8.47014ZM5.36416 12.109H2.17494C1.75146 12.109 1.41162 11.7639 1.41162 11.3457V2.8498C1.41162 2.42631 1.75668 2.08648 2.17494 2.08648H5.36416C5.78765 2.08648 6.12748 2.43154 6.12748 2.8498V11.3457C6.12748 11.7692 5.78765 12.109 5.36416 12.109ZM22.1834 12.6161C22.1834 12.6214 22.3663 12.9089 22.4291 13.301C22.5075 13.7872 22.3716 14.1898 22.0056 14.5244C21.007 15.4341 18.1315 15.225 16.5264 14.8695C16.5055 14.8643 16.4846 14.859 16.4585 14.8538C16.1709 14.8015 15.8624 14.7388 15.5487 14.6708C15.2141 14.5506 14.7541 14.5663 14.409 14.8747C13.7136 15.4916 13.7921 16.8928 14.6652 19.554C15.2403 21.3002 15.2612 22.6177 14.7279 23.3549C14.2783 23.9771 13.5359 24.0555 13.2536 24.0607C13.1281 23.8516 13.0915 23.1353 13.1856 22.5445C13.2013 22.4295 13.1908 22.3093 13.1542 22.1942C13.0549 21.9276 10.7597 15.6433 8.41221 13.782C7.80051 13.118 7.53387 12.339 7.43976 11.9887C7.5025 11.7848 7.5391 11.5653 7.5391 11.3404V2.8498C7.5391 2.69295 7.52342 2.53611 7.49205 2.38972L8.0201 2.32698H8.02533C8.05669 2.32175 11.4603 1.88258 14.822 1.95577C14.8429 1.95577 14.8691 1.95577 14.8952 1.95577C16.4794 1.8303 17.7603 1.86689 18.7066 2.07079C19.8777 2.32175 20.6515 2.76092 21.007 3.38308C21.3782 4.02615 21.1743 4.69014 21.1586 4.75287C21.0488 5.04565 21.1482 5.36458 21.3991 5.55279C22.9467 6.71346 22.2356 8.06757 22.1415 8.23487C21.969 8.50674 22.0108 8.8518 22.2356 9.08707C22.6853 9.55761 22.9049 10.0282 22.8892 10.4882C22.8683 11.1731 22.3402 11.6855 22.3036 11.7169C22.0422 11.9417 21.9951 12.3233 22.1834 12.6161Z" fill="black"/>
</svg>
