<svg width="45" height="45" viewBox="0 0 45 45" fill="none" xmlns="http://www.w3.org/2000/svg">
<circle cx="22.5" cy="22.5" r="22.5" fill="#445790"/>
<path d="M16.5629 22.7835H19.0292V32.9371C19.0292 33.1376 19.1917 33.3 19.3921 33.3H23.5739C23.7744 33.3 23.9368 33.1376 23.9368 32.9371V22.8313H26.7721C26.9565 22.8313 27.1116 22.693 27.1327 22.5099L27.5633 18.7718C27.5751 18.669 27.5425 18.566 27.4737 18.4888C27.4049 18.4116 27.3063 18.3674 27.2028 18.3674H23.937V16.0242C23.937 15.3179 24.3173 14.9597 25.0675 14.9597C25.1745 14.9597 27.2028 14.9597 27.2028 14.9597C27.4033 14.9597 27.5657 14.7972 27.5657 14.5968V11.1656C27.5657 10.9651 27.4033 10.8027 27.2028 10.8027H24.26C24.2393 10.8017 24.1932 10.8 24.1253 10.8C23.6147 10.8 21.8398 10.9002 20.4379 12.19C18.8845 13.6193 19.1004 15.3305 19.152 15.6272V18.3673H16.5629C16.3624 18.3673 16.2 18.5297 16.2 18.7302V22.4205C16.2 22.621 16.3624 22.7835 16.5629 22.7835Z" fill="white"/>
</svg>
