<svg width="45" height="45" viewBox="0 0 45 45" fill="none" xmlns="http://www.w3.org/2000/svg">
<circle cx="22.5" cy="22.5" r="22.5" fill="#DE4E44"/>
<path d="M22.0388 24.1875V20.0025H32.5688C32.7263 20.7112 32.85 21.375 32.85 22.3087C32.85 28.7325 28.5413 33.3 22.05 33.3C15.84 33.3 10.8 28.26 10.8 22.05C10.8 15.84 15.84 10.8 22.05 10.8C25.0875 10.8 27.63 11.9137 29.5763 13.7362L26.3813 16.8412C25.5713 16.0762 24.1538 15.1762 22.05 15.1762C18.3263 15.1762 15.2888 18.27 15.2888 22.0612C15.2888 25.8525 18.3263 28.9462 22.05 28.9462C26.3588 28.9462 27.945 25.965 28.2375 24.1987H22.0388V24.1875Z" fill="white"/>
</svg>
