<svg width="19" height="17" viewBox="0 0 19 17" fill="none" xmlns="http://www.w3.org/2000/svg">
<path d="M17.252 1.53183C16.2693 0.549072 14.9682 0.0119364 13.5796 0.0119364C12.191 0.0119364 10.886 0.55305 9.9032 1.53581L9.38994 2.04907L8.86872 1.52785C7.88596 0.545093 6.57694 0 5.18835 0C3.80374 0 2.4987 0.541114 1.51992 1.51989C0.537157 2.50265 -0.00395699 3.80769 2.17867e-05 5.19629C2.17867e-05 6.58488 0.545115 7.88594 1.52787 8.8687L9.00002 16.3408C9.10347 16.4443 9.24273 16.5 9.37801 16.5C9.51328 16.5 9.65254 16.4483 9.75599 16.3448L17.2441 8.88461C18.2268 7.90186 18.7679 6.59682 18.7679 5.20822C18.7719 3.81963 18.2348 2.51459 17.252 1.53183ZM16.4881 8.12467L9.37801 15.2069L2.28384 8.11273C1.504 7.33289 1.07429 6.29841 1.07429 5.19629C1.07429 4.09416 1.50002 3.05968 2.27986 2.28382C3.05572 1.50796 4.09021 1.07825 5.18835 1.07825C6.29047 1.07825 7.32893 1.50796 8.10878 2.2878L9.00798 3.187C9.21885 3.39788 9.55705 3.39788 9.76793 3.187L10.6592 2.29576C11.439 1.51592 12.4775 1.08621 13.5756 1.08621C14.6738 1.08621 15.7082 1.51592 16.4881 2.29178C17.2679 3.07162 17.6937 4.1061 17.6937 5.20822C17.6976 6.31034 17.2679 7.34483 16.4881 8.12467Z" fill="#F5F6FA"/>
</svg>
