<svg width="22" height="22" viewBox="0 0 22 22" fill="none" xmlns="http://www.w3.org/2000/svg">
<path d="M11 0C4.93456 0 0 4.93456 0 11C0 17.0654 4.93447 22 10.9999 22C17.0653 22 21.9999 17.0654 21.9999 11C21.9999 4.93456 17.0653 0 11 0ZM11 19.3098C6.41794 19.3098 2.69021 15.5821 2.69021 11C2.69021 6.41794 6.41794 2.69021 11 2.69021C15.5821 2.69021 19.3098 6.41794 19.3098 11C19.3098 15.5821 15.582 19.3098 11 19.3098Z" fill="black"/>
<path d="M12.3455 9.78943H9.65527V16.8737H12.3455V9.78943Z" fill="black"/>
<path d="M12.3455 5.1264H9.65527V7.72694H12.3455V5.1264Z" fill="black"/>
</svg>
