<svg width="25" height="26" viewBox="0 0 25 26" fill="none" xmlns="http://www.w3.org/2000/svg">
<path d="M23.5728 17.4631C24.0851 16.8096 24.3308 16.1091 24.2995 15.3876C24.2681 14.593 23.9126 13.9709 23.6198 13.5892C23.9596 12.7423 24.0903 11.4092 22.9559 10.374C22.1246 9.61599 20.7131 9.27618 18.7578 9.37028C17.3829 9.43302 16.2327 9.68919 16.1857 9.69964H16.1805C15.9191 9.74669 15.642 9.8042 15.3597 9.86693C15.3388 9.53235 15.3963 8.7011 16.0132 6.8295C16.7451 4.6024 16.7033 2.89809 15.8772 1.7584C15.0094 0.561205 13.624 0.467102 13.2162 0.467102C12.8241 0.467102 12.4634 0.629168 12.2072 0.927161C11.6269 1.60156 11.6949 2.84581 11.7681 3.42089C11.078 5.27158 9.14366 9.80943 7.50732 11.0694C7.47595 11.0903 7.44981 11.1164 7.42367 11.1426C6.9427 11.6497 6.61857 12.1986 6.399 12.6796C6.09055 12.5123 5.74028 12.4182 5.36386 12.4182H2.17482C0.972397 12.4182 0 13.3958 0 14.593V23.0884C0 24.2908 0.977625 25.2632 2.17482 25.2632H5.36386C5.82915 25.2632 6.26307 25.1168 6.61857 24.8659L7.84713 25.0123C8.03534 25.0384 11.3812 25.4619 14.816 25.3939C15.4381 25.441 16.0236 25.4671 16.5673 25.4671C17.5031 25.4671 18.3187 25.3939 18.9983 25.2475C20.5981 24.9077 21.6907 24.2281 22.2449 23.2295C22.6683 22.4663 22.6683 21.7082 22.6004 21.2272C23.6407 20.2862 23.8237 19.2459 23.7871 18.5139C23.7662 18.0905 23.6721 17.7298 23.5728 17.4631ZM2.17482 23.8517C1.75136 23.8517 1.41154 23.5066 1.41154 23.0884V14.5878C1.41154 14.1643 1.75659 13.8245 2.17482 13.8245H5.36386C5.78733 13.8245 6.12714 14.1695 6.12714 14.5878V23.0832C6.12714 23.5066 5.7821 23.8464 5.36386 23.8464H2.17482V23.8517ZM22.2344 16.8515C22.0148 17.0815 21.973 17.4318 22.1403 17.7036C22.1403 17.7088 22.3547 18.0748 22.3808 18.5767C22.4174 19.2615 22.088 19.868 21.398 20.3855C21.1522 20.5738 21.0529 20.8979 21.1575 21.1906C21.1575 21.1959 21.3823 21.886 21.0163 22.5395C20.666 23.1668 19.8871 23.6164 18.7056 23.8674C17.7593 24.0712 16.4732 24.1078 14.8944 23.9824C14.8735 23.9824 14.8473 23.9824 14.8212 23.9824C11.4596 24.0556 8.06148 23.6164 8.02489 23.6112H8.01966L7.49164 23.5484C7.523 23.4021 7.53869 23.2452 7.53869 23.0884V14.5878C7.53869 14.363 7.50209 14.1434 7.43936 13.9395C7.53346 13.5892 7.79486 12.8103 8.41175 12.1463C10.7591 10.2852 13.0542 4.00642 13.1535 3.73456C13.1953 3.62478 13.2058 3.50453 13.1849 3.38429C13.096 2.79876 13.1274 2.08253 13.2528 1.86819C13.5299 1.87342 14.2775 1.95184 14.7271 2.57396C15.2604 3.3111 15.2394 4.62854 14.6644 6.37467C13.7861 9.03569 13.7129 10.4368 14.4082 11.0537C14.7532 11.3621 15.2133 11.3778 15.5479 11.2576C15.8668 11.1844 16.17 11.1216 16.4576 11.0746C16.4785 11.0694 16.5046 11.0641 16.5255 11.0589C18.1305 10.7086 21.0059 10.4943 22.0044 11.4039C22.8513 12.1777 22.2501 13.2024 22.1821 13.3121C21.9887 13.6049 22.0462 13.9865 22.3076 14.2218C22.3128 14.227 22.8618 14.7446 22.8879 15.4399C22.9088 15.9052 22.6893 16.3809 22.2344 16.8515Z" fill="black"/>
</svg>
