<svg width="64" height="56" viewBox="0 0 64 56" fill="none" xmlns="http://www.w3.org/2000/svg">
<path d="M57.7815 12.0519C52.2538 11.1944 48.27 4.21119 43.5795 2.52454C43.0203 2.32359 40.0173 4.9087 39.45 5.2852C31.3438 10.6639 22.5798 14.9082 14.4298 20.2442C12.6098 21.4357 3.4506 24.9722 2.78663 27.1202C2.6685 27.5034 2.6461 28.0529 2.78663 28.0804C4.88143 28.4912 7.0435 30.1922 8.81425 31.3747C9.94775 32.1314 19.9308 39.8364 20.7515 39.2099C29.456 32.5637 48.219 19.6467 58.4425 13.0314" stroke="black" stroke-opacity="0.9" stroke-width="4" stroke-linecap="round" stroke-linejoin="round"/>
<path d="M60.0778 18.106C47.6133 24.214 30.811 42.3077 20.9003 47.6502C20.4563 47.8895 16.9888 45.0105 16.4185 44.703C12.8583 42.7832 9.52526 40.2125 6.44971 37.499" stroke="black" stroke-opacity="0.9" stroke-width="4" stroke-linecap="round" stroke-linejoin="round"/>
<path d="M61.2498 24.0178C58.0541 22.5858 24.3516 54.6378 21.0936 53.2298C17.8358 51.8221 11.1001 46.4363 7.07959 43.3396" stroke="black" stroke-opacity="0.9" stroke-width="4" stroke-linecap="round" stroke-linejoin="round"/>
<path d="M29.2105 16.8607C36.9178 7.65297 43.2713 25.983 30.284 24.0735C27.6078 23.6802 26.13 17.8282 28.2188 16.326" stroke="black" stroke-opacity="0.9" stroke-width="4" stroke-linecap="round" stroke-linejoin="round"/>
<path d="M11.9517 26.2105C13.3367 28.0737 14.3314 26.7967 16.9069 24.875" stroke="black" stroke-opacity="0.9" stroke-width="4" stroke-linecap="round" stroke-linejoin="round"/>
<path d="M47.79 14.1002C49.1263 13.2489 48.0375 13.9539 48.0375 12.3199" stroke="black" stroke-opacity="0.9" stroke-width="4" stroke-linecap="round" stroke-linejoin="round"/>
</svg>
