<svg width="45" height="45" viewBox="0 0 45 45" fill="none" xmlns="http://www.w3.org/2000/svg">
<circle cx="22.5" cy="22.5" r="22.5" fill="#45A3ED"/>
<path d="M31.7728 14.9345C31.4274 15.0876 31.0723 15.2169 30.7095 15.3219C31.1391 14.8361 31.4666 14.2645 31.6665 13.639C31.7113 13.4988 31.6649 13.3453 31.5496 13.2536C31.4345 13.1618 31.2746 13.1508 31.1479 13.2259C30.3773 13.6829 29.546 14.0114 28.6743 14.2034C27.7962 13.3454 26.6037 12.8571 25.3708 12.8571C22.7684 12.8571 20.6511 14.9743 20.6511 17.5766C20.6511 17.7816 20.6641 17.9854 20.6898 18.1864C17.4604 17.9029 14.4582 16.3156 12.3965 13.7867C12.3231 13.6965 12.2099 13.6479 12.094 13.6573C11.978 13.6663 11.8738 13.7317 11.8153 13.8322C11.3971 14.5497 11.1761 15.3703 11.1761 16.2053C11.1761 17.3425 11.5821 18.4215 12.2993 19.2646C12.0812 19.1891 11.8696 19.0947 11.6676 18.9826C11.5592 18.9222 11.4268 18.9231 11.3191 18.9849C11.2113 19.0467 11.1437 19.1603 11.1408 19.2844C11.1403 19.3054 11.1403 19.3263 11.1403 19.3475C11.1403 21.0449 12.0539 22.5732 13.4507 23.4062C13.3307 23.3942 13.2108 23.3768 13.0916 23.354C12.9688 23.3305 12.8425 23.3736 12.7597 23.4673C12.6767 23.5609 12.6492 23.6914 12.6875 23.8106C13.2045 25.4247 14.5356 26.612 16.1448 26.9739C14.8101 27.8099 13.2838 28.2477 11.6816 28.2477C11.3473 28.2477 11.0111 28.2281 10.682 28.1892C10.5186 28.1697 10.3623 28.2663 10.3066 28.4217C10.2509 28.5773 10.3099 28.7507 10.449 28.8398C12.5073 30.1596 14.8873 30.8571 17.3315 30.8571C22.1366 30.8571 25.1426 28.5912 26.8181 26.6904C28.9074 24.3201 30.1056 21.1829 30.1056 18.083C30.1056 17.9535 30.1036 17.8228 30.0997 17.6924C30.924 17.0714 31.6336 16.3197 32.2111 15.4559C32.2989 15.3247 32.2894 15.1513 32.1877 15.0305C32.0863 14.9096 31.9172 14.8705 31.7728 14.9345Z" fill="white"/>
</svg>
