<svg width="28" height="19" viewBox="0 0 28 19" fill="none" xmlns="http://www.w3.org/2000/svg">
<path d="M26.8129 0H24.6571L14.1272 14.0932C14.0206 14.2314 13.8569 14.3127 13.688 14.3127C13.5149 14.3127 13.3555 14.2314 13.2457 14.0932L2.719 0H0.562146C0.344666 0 0.1483 0.128181 0.056452 0.333269C-0.0385636 0.538358 -0.0111147 0.782458 0.119796 0.958566L13.2478 18.5271C13.3576 18.6664 13.517 18.75 13.6901 18.75C13.8591 18.75 14.0227 18.6664 14.1293 18.5271L27.2552 0.957452C27.3903 0.782458 27.4115 0.537243 27.3164 0.332155C27.2267 0.128181 27.0282 0 26.8129 0Z" fill="#4E4C75"/>
</svg>
