<svg width="15" height="15" viewBox="0 0 15 15" fill="none" xmlns="http://www.w3.org/2000/svg">
<path d="M14.8486 3.68709L11.3128 0.151202C11.216 0.054394 11.0846 0 10.9477 0C10.8107 0 10.6794 0.054394 10.5826 0.151202L0.262157 10.4716C0.169205 10.5647 0.115156 10.6896 0.111162 10.821L0.000239808 14.4679C-0.00409794 14.6102 0.0505715 14.7481 0.151235 14.8488C0.248249 14.9457 0.379621 15 0.516363 15C0.521596 15 0.526829 14.9999 0.53213 14.9997L4.17887 14.8887C4.31031 14.8847 4.43528 14.8307 4.5283 14.7377L14.8487 4.41741C15.0503 4.21574 15.0503 3.88876 14.8486 3.68709ZM3.9427 13.8626L1.04922 13.9507L1.13728 11.0571L7.41145 4.78288L10.2172 7.58817L3.9427 13.8626ZM10.9475 6.85791L8.14171 4.0527L10.9476 1.24672L13.7531 4.05228L10.9475 6.85791Z" fill="#4E4C75"/>
</svg>
