<svg width="28" height="28" viewBox="0 0 28 28" fill="none" xmlns="http://www.w3.org/2000/svg">
<path d="M24 19H22V24H24V19Z" fill="white"/>
<path d="M20 14H18V24H20V14Z" fill="white"/>
<path d="M9 24C7.6744 23.9984 6.40353 23.4712 5.46619 22.5338C4.52885 21.5965 4.00156 20.3256 4 19H6C6 19.5933 6.17595 20.1734 6.50559 20.6667C6.83524 21.1601 7.30377 21.5446 7.85195 21.7716C8.40013 21.9987 9.00333 22.0581 9.58527 21.9424C10.1672 21.8266 10.7018 21.5409 11.1213 21.1213C11.5409 20.7018 11.8266 20.1672 11.9424 19.5853C12.0581 19.0033 11.9987 18.4001 11.7716 17.8519C11.5446 17.3038 11.1601 16.8352 10.6667 16.5056C10.1734 16.1759 9.59334 16 9 16V14C10.3261 14 11.5979 14.5268 12.5355 15.4645C13.4732 16.4021 14 17.6739 14 19C14 20.3261 13.4732 21.5979 12.5355 22.5355C11.5979 23.4732 10.3261 24 9 24Z" fill="white"/>
<path d="M26 0H2C1.46973 0.000529477 0.961329 0.211413 0.586371 0.586371C0.211413 0.961329 0.000529477 1.46973 0 2V26C0.000608734 26.5302 0.211518 27.0386 0.586459 27.4135C0.9614 27.7885 1.46975 27.9994 2 28H26C26.5302 27.9993 27.0385 27.7883 27.4134 27.4134C27.7883 27.0385 27.9993 26.5302 28 26V2C27.9994 1.46975 27.7885 0.9614 27.4135 0.586459C27.0386 0.211518 26.5302 0.000608734 26 0ZM26 9H12V2H26V9ZM10 2V9H2V2H10ZM2 26V11H26.0007L26.002 26H2Z" fill="white"/>
</svg>
