<svg width="30" height="30" viewBox="0 0 30 30" fill="none" xmlns="http://www.w3.org/2000/svg">
<path d="M28.4834 14.8486C27.6759 13.8242 26.5849 13.2118 25.3069 13.0397C25.9294 11.6866 25.852 10.2502 25.8471 10.1711L25.7939 9.30818L24.931 9.25498C24.8692 9.251 23.9826 9.20307 22.9537 9.47693V0H0V29.9999H16.7415V29.9323C17.0185 29.9768 17.2999 29.9999 17.5851 29.9999C18.8654 29.9999 19.4568 29.7812 19.953 29.5573C20.1446 29.4708 20.161 29.4674 20.2324 29.4674C20.3037 29.4674 20.3202 29.4708 20.5118 29.5573C21.0078 29.7813 21.5993 29.9999 22.8796 29.9999C25.2598 29.9999 27.3876 28.4278 28.7174 25.6863C29.5444 23.9815 29.9999 21.9678 29.9999 20.016C30.0001 17.9246 29.4615 16.0895 28.4834 14.8486ZM22.2173 12.0185C22.6377 11.5981 23.2665 11.3856 23.8169 11.285C23.7164 11.836 23.5038 12.4645 23.0836 12.8848C22.8536 13.1148 22.5611 13.2822 22.2533 13.4035C22.2413 13.4082 22.2294 13.4129 22.2174 13.4177C21.9731 13.5107 21.7203 13.5752 21.4822 13.6186C21.5757 13.0884 21.7792 12.4567 22.2173 12.0185ZM1.9565 28.0434V1.9565H20.9971V10.4819C20.9418 10.5311 20.8871 10.5818 20.8339 10.635C20.6219 10.847 20.443 11.0779 20.2905 11.3179C20.19 11.0593 20.0979 10.8401 20.0255 10.6746L18.2329 11.4586C18.5212 12.1176 18.8202 12.9507 19.0198 13.7721C18.5499 13.5287 18.0024 13.2882 17.4037 13.1568C15.6028 12.7619 14.009 13.0697 12.8044 14.0217H6.21221V15.9782H11.2884C10.9121 16.7669 10.6588 17.6877 10.5413 18.6956H6.21221V20.6521H10.4818C10.5273 21.5658 10.6694 22.4838 10.9003 23.3694H6.21221V25.3259H11.5806C11.6345 25.4474 11.6898 25.5677 11.7473 25.6863C12.1954 26.6101 12.7345 27.4005 13.343 28.0434H1.9565ZM26.9571 24.8325C26.3754 26.0316 25.0721 28.0434 22.8796 28.0434C21.9134 28.0434 21.5964 27.9004 21.3169 27.7741C21.0572 27.6568 20.734 27.5109 20.2323 27.5109C19.7306 27.5109 19.4074 27.6568 19.1478 27.7741C18.8681 27.9004 18.5513 28.0434 17.5849 28.0434C15.3925 28.0434 14.0893 26.0316 13.5076 24.8325C12.0572 21.8425 12.0618 17.9072 13.5178 16.0598C14.2991 15.0686 15.4656 14.735 16.9845 15.0681C17.6052 15.2041 18.1975 15.5423 18.7201 15.8406C19.2884 16.165 19.7373 16.4212 20.2323 16.4212C20.7273 16.4212 21.1762 16.1649 21.7445 15.8406C22.2672 15.5423 22.8596 15.2041 23.4801 15.0681C24.9992 14.7348 26.1655 15.0686 26.9467 16.0598C28.4029 17.9071 28.4075 21.8425 26.9571 24.8325Z" fill="#F5F6FA"/>
</svg>
