<svg width="17" height="16" viewBox="0 0 17 16" fill="none" xmlns="http://www.w3.org/2000/svg">
<path d="M8.75 14C8.3358 14 8 14.3358 8 14.75C8 15.1642 8.3358 15.5 8.75 15.5H14.75C15.7165 15.5 16.5 14.7165 16.5 13.75V1.75C16.5 0.7835 15.7165 0 14.75 0H8.75C8.3358 0 8 0.33579 8 0.75C8 1.16421 8.3358 1.5 8.75 1.5H14.75C14.8881 1.5 15 1.61193 15 1.75V13.75C15 13.8881 14.8881 14 14.75 14H8.75Z" fill="#EEA17B"/>
<path fill-rule="evenodd" clip-rule="evenodd" d="M11.2531 10.1152C11.9434 10.1152 12.5031 9.5556 12.5031 8.8652V6.6247C12.5031 5.9343 11.9434 5.3747 11.2531 5.3747H6.64048C6.63396 5.30128 6.62713 5.22787 6.62 5.15448L6.56597 4.5986C6.48354 3.75049 5.58294 3.24258 4.81451 3.61084C3.18029 4.39403 1.70085 5.46578 0.447359 6.7745L0.348159 6.8781C-0.116051 7.3628 -0.116051 8.1271 0.348149 8.6118L0.447359 8.7154C1.70085 10.0241 3.18029 11.0959 4.81451 11.8791C5.58293 12.2473 6.48354 11.7394 6.56597 10.8913L6.62 10.3354C6.62713 10.262 6.63396 10.1886 6.64048 10.1152H11.2531ZM5.94511 8.6152C5.67874 8.6152 5.44326 8.7545 5.31008 8.966C5.24523 9.069 5.20464 9.1891 5.19656 9.3185C5.17842 9.6094 5.15524 9.9 5.12703 10.1903L5.11135 10.3517C4.0753 9.8177 3.11316 9.1528 2.24838 8.3739C2.02402 8.1718 1.80622 7.9621 1.59538 7.745C2.61892 6.6909 3.80651 5.8107 5.11135 5.13824L5.12703 5.29959C5.15524 5.58987 5.17842 5.8805 5.19656 6.1714C5.22122 6.5667 5.54902 6.8747 5.94511 6.8747H11.0031V8.6152H5.94511Z" fill="#EEA17B"/>
</svg>
