<svg width="35" height="27" viewBox="0 0 35 27" fill="none" xmlns="http://www.w3.org/2000/svg">
<path d="M16.656 8.89478C16.3678 9.03888 16.2505 9.38888 16.3946 9.67701C16.4973 9.88175 16.7032 9.9996 16.9173 9.9996C17.0048 9.9996 17.0941 9.97978 17.1775 9.93835C17.2381 9.90745 18.6668 9.17594 18.6668 7.6663C18.6668 6.84148 18.231 6.40514 17.9125 6.0872C17.6267 5.80139 17.5001 5.66078 17.5001 5.33293C17.5001 5.00508 17.6267 4.86453 17.9125 4.57866C18.231 4.26072 18.6668 3.82438 18.6668 2.99956C18.6668 1.48992 17.2382 0.758407 17.1775 0.728056C16.8922 0.585732 16.544 0.700644 16.3987 0.985906C16.2529 1.27233 16.3678 1.62233 16.6525 1.76992C16.6606 1.77402 17.5001 2.21671 17.5001 2.99956C17.5001 3.32741 17.3735 3.46796 17.0877 3.75384C16.7692 4.07177 16.3334 4.50811 16.3334 5.33293C16.3334 6.15775 16.7691 6.59409 17.0877 6.91203C17.3735 7.19784 17.5001 7.33845 17.5001 7.6663C17.5001 8.44915 16.6607 8.89184 16.656 8.89478Z" fill="#F5F6FA"/>
<path d="M12.833 8.83299C12.833 9.61057 12.0052 10.0522 11.9854 10.0626C11.7002 10.2079 11.5841 10.5567 11.7276 10.8437C11.8302 11.0484 12.0361 11.1663 12.2502 11.1663C12.3377 11.1663 12.427 11.1465 12.5104 11.105C12.5711 11.0741 13.9997 10.3426 13.9997 8.83299C13.9997 8.00816 13.564 7.57183 13.2454 7.25389C12.9596 6.96808 12.833 6.82747 12.833 6.49962C12.833 5.71677 13.6718 5.27401 13.6771 5.27168C13.9652 5.12758 14.0825 4.77704 13.9378 4.48883C13.7943 4.2007 13.4443 4.08285 13.1556 4.22811C13.095 4.25846 11.6663 4.98997 11.6663 6.49962C11.6663 7.32444 12.102 7.76077 12.4206 8.07871C12.7065 8.36452 12.833 8.50514 12.833 8.83299Z" fill="#F5F6FA"/>
<path d="M22.1669 8.83298C22.1669 9.61057 21.3398 10.0522 21.3199 10.0626C21.0341 10.2079 20.9181 10.5567 21.0615 10.8437C21.1642 11.0484 21.3701 11.1663 21.5842 11.1663C21.6717 11.1663 21.761 11.1465 21.8444 11.105C21.9056 11.0741 23.3337 10.3426 23.3337 8.83298C23.3337 8.00816 22.8979 7.57183 22.5794 7.25389C22.2936 6.96808 22.167 6.82746 22.167 6.49961C22.167 5.71677 23.0058 5.274 23.0111 5.27168C23.2992 5.12758 23.4165 4.77703 23.2718 4.48883C23.1271 4.2007 22.7771 4.08401 22.4896 4.22811C22.4283 4.25846 21.0003 4.98997 21.0003 6.49961C21.0003 7.32443 21.436 7.76077 21.7546 8.07871C22.0403 8.36452 22.1669 8.50513 22.1669 8.83298Z" fill="#F5F6FA"/>
<path d="M8.16716 14.6663C8.56617 14.6663 8.93305 14.8705 9.15009 15.2123C9.31634 15.4741 9.65875 15.5599 9.93062 15.4071C10.3879 15.1481 10.9194 15.2245 11.2845 15.5605C11.4502 15.7122 11.6876 15.7548 11.8959 15.6724C12.1035 15.5891 12.2459 15.3942 12.261 15.1702C12.303 14.5607 12.8105 14.0829 13.4172 14.0829C13.8086 14.0829 14.172 14.2789 14.3891 14.6067C14.6055 14.9334 15.1457 14.9334 15.3615 14.6067C15.7593 14.0076 16.6874 13.9236 17.1861 14.4603C17.3243 14.6091 17.5291 14.6761 17.7286 14.6353C17.9269 14.5957 18.0915 14.4557 18.1615 14.2655C18.33 13.807 18.7675 13.4996 19.2506 13.4996C19.8934 13.4996 20.4172 14.0228 20.4166 14.6516C20.4149 14.6639 20.4085 14.7199 20.4073 14.7322C20.3921 14.9293 20.4779 15.1213 20.6359 15.2408C20.7928 15.361 21.0016 15.3931 21.1872 15.3254C21.6917 15.1434 22.1229 15.2886 22.4361 15.627C22.5743 15.7757 22.7797 15.8423 22.9786 15.802C23.1769 15.7623 23.3414 15.6223 23.4114 15.4322C23.58 14.9737 24.0175 14.6663 24.5005 14.6663C25.0221 14.6663 25.4829 15.0215 25.6205 15.5302C25.6637 15.6912 25.7745 15.8259 25.9233 15.9C26.072 15.9747 26.2459 15.9811 26.4011 15.9193C26.9319 15.7052 27.5217 15.9123 27.8168 16.3784C27.9824 16.6409 28.3254 16.7278 28.5967 16.5738C29.0978 16.2915 29.6852 16.414 30.0352 16.8037C30.1501 16.932 30.3099 16.9973 30.4692 16.9973C30.6086 16.9973 30.748 16.9483 30.8588 16.848C31.0986 16.6328 31.119 16.2641 30.9037 16.0244C30.3058 15.3587 29.3375 15.0852 28.4853 15.3559C27.9812 14.8454 27.248 14.587 26.5259 14.6874C26.1193 13.9676 25.3504 13.4997 24.5005 13.4997C23.7895 13.4997 23.1274 13.8304 22.6922 14.3677C22.3323 14.1711 21.9234 14.0697 21.5104 14.0843C21.2514 13.0786 20.3361 12.3331 19.2506 12.3331C18.54 12.3331 17.8791 12.6627 17.444 13.1987C16.6489 12.763 15.5832 12.8604 14.8756 13.4292C14.4673 13.1008 13.9557 12.9164 13.4173 12.9164C12.5043 12.9164 11.7034 13.4531 11.3243 14.2359C10.8488 14.0533 10.311 14.0329 9.81871 14.1886C9.38531 13.7511 8.79674 13.4997 8.16729 13.4997C7.84532 13.4997 7.58398 13.7611 7.58398 14.083C7.58398 14.405 7.84512 14.6663 8.16716 14.6663Z" fill="#F5F6FA"/>
<path d="M34.4166 18.1663H0.583308C0.261337 18.1663 0 18.4276 0 18.7496C0 20.3578 1.30839 21.6662 2.91668 21.6662H3.53212C3.82319 24.2877 6.05211 26.3329 8.75003 26.3329H26.25C28.9479 26.3329 31.1762 24.2877 31.4673 21.6662H32.0833C33.6915 21.6662 34.9999 20.3579 34.9999 18.7496C34.9999 18.4276 34.7391 18.1663 34.4166 18.1663ZM32.0832 20.4996H30.9165C30.5939 20.4996 30.3332 20.7609 30.3332 21.0829C30.3332 23.3345 28.501 25.1662 26.2499 25.1662H8.74997C6.69605 25.1662 4.99213 23.6425 4.7081 21.6662H28.5833C28.9059 21.6662 29.1666 21.4048 29.1666 21.0829C29.1666 20.7609 28.9059 20.4996 28.5833 20.4996H2.91668C2.15598 20.4996 1.50732 20.0119 1.26642 19.3329H33.7334C33.4925 20.0119 32.8439 20.4996 32.0832 20.4996Z" fill="#F5F6FA"/>
<path d="M0.353602 13.4524L8.52026 16.9523C8.59491 16.9844 8.67311 17.0002 8.74954 17.0002C8.97642 17.0002 9.19168 16.8672 9.28622 16.6461C9.41337 16.3498 9.2757 16.0067 8.97997 15.8802L0.813317 12.3802C0.51698 12.2531 0.173407 12.3907 0.0474211 12.6865C-0.0797952 12.9828 0.0578801 13.3257 0.353602 13.4524Z" fill="#F5F6FA"/>
</svg>
