<svg width="26" height="30" viewBox="0 0 26 30" fill="none" xmlns="http://www.w3.org/2000/svg">
<path d="M25.5844 24.9878L22.0316 18.8817C22.5819 18.7029 23.1337 18.4628 23.4239 17.9618C23.7775 17.3515 23.602 16.5972 23.4473 15.9315C23.3448 15.4904 23.2388 15.0343 23.3151 14.7319C23.3975 14.4061 23.7148 14.0416 24.0217 13.6891C24.4769 13.1661 24.9476 12.6253 24.9476 11.955C24.9476 11.3068 24.466 10.6913 24.0002 10.096C23.6816 9.68889 23.3523 9.26794 23.268 8.93666C23.191 8.63405 23.2962 8.17766 23.398 7.73632C23.5515 7.0705 23.7255 6.31585 23.3708 5.7062C23.0161 5.09654 22.2741 4.87491 21.6194 4.67927C21.1855 4.54956 20.7368 4.41551 20.5118 4.19906C20.2728 3.96899 20.1164 3.51386 19.9652 3.0736C19.7367 2.4082 19.5003 1.72024 18.8995 1.39899C18.6791 1.28115 18.4295 1.22382 18.1365 1.22382C17.7365 1.22382 17.3181 1.33255 16.9135 1.43768C16.5431 1.53396 16.1932 1.62497 15.8992 1.62497C15.8153 1.62497 15.7424 1.61761 15.6763 1.6024C15.3584 1.52911 14.9931 1.21764 14.6397 0.916531C14.1111 0.465996 13.5644 0 12.8889 0C12.0583 0 11.0467 0.810228 10.3774 1.34642C10.2389 1.45732 10.0698 1.59271 9.99614 1.64085C9.93964 1.65096 9.8768 1.65606 9.80869 1.65606C9.51527 1.65614 9.16619 1.56605 8.79672 1.4707C8.3934 1.36657 7.97638 1.25901 7.57757 1.25901C7.28273 1.25901 7.03176 1.31676 6.81055 1.4356C6.21034 1.75802 5.97525 2.44648 5.74793 3.1123C5.59759 3.5528 5.44206 4.00827 5.20355 4.23868C4.97891 4.45563 4.53046 4.59051 4.09672 4.72097C3.44236 4.91778 2.70074 5.14083 2.34707 5.75116C1.99356 6.36148 2.16897 7.11572 2.32367 7.7812C2.42629 8.22229 2.53234 8.67851 2.45596 8.98137C2.37932 9.28474 2.06977 9.65797 1.77042 10.0188C1.30693 10.5776 0.7816 11.2108 0.7816 11.9506C0.7816 12.6216 1.25395 13.1619 1.71083 13.6844C2.01838 14.0361 2.33629 14.3998 2.4191 14.7251C2.49607 15.0276 2.39086 15.484 2.28915 15.9253C2.13563 16.5911 1.96163 17.3457 2.3164 17.9556C2.61667 18.4717 3.18161 18.7058 3.73536 18.8814L0.169103 25.0364C-0.0318875 25.3832 -0.0547862 25.7505 0.106173 26.0439C0.267132 26.3374 0.589134 26.5154 0.989777 26.5324L3.56554 26.6397C3.95156 26.6559 4.49085 26.9684 4.69685 27.295L6.07136 29.4762C6.28121 29.809 6.58992 30.0001 6.91844 30.0001C7.2595 30.0001 7.57247 29.7975 7.77714 29.4442C7.81057 29.3866 10.7284 24.349 11.4592 23.0879C11.8251 23.3543 12.3936 23.6867 12.9518 23.6867C13.4665 23.6867 13.9086 23.4206 14.3147 23.1003C14.6422 23.6646 15.5344 25.214 17.9843 29.4252C18.1893 29.7774 18.502 29.9955 18.8425 29.9955C18.8425 29.9955 18.8425 29.9955 18.8425 29.9955C19.1716 29.9955 19.4804 29.7881 19.69 29.4541L21.0606 27.2626C21.2663 26.9353 21.8049 26.6179 22.1908 26.6011L24.7664 26.4868C25.1668 26.4693 25.4885 26.2897 25.649 25.9961C25.8095 25.7022 25.7859 25.3342 25.5844 24.9878ZM16.2784 14.9064L16.5896 16.7209C16.6313 16.9643 16.5955 17.1107 16.5523 17.162C16.5441 17.1717 16.525 17.1945 16.4514 17.1945C16.3966 17.1945 16.2772 17.1798 16.0919 17.0825L14.4624 16.2258C14.0405 16.0041 13.4868 15.8819 12.9033 15.8819C12.3198 15.8819 11.7662 16.0041 11.3444 16.2258L9.71483 17.0825C9.52964 17.1798 9.41005 17.1945 9.35539 17.1945C9.28185 17.1945 9.26271 17.1718 9.25452 17.1621C9.21123 17.1108 9.17546 16.9644 9.21725 16.721L9.52847 14.9064C9.69536 13.933 9.27216 12.6304 8.56497 11.9411L7.24663 10.6561C7.04898 10.4634 7.00335 10.3132 7.0209 10.2593C7.03837 10.2054 7.16356 10.1108 7.43675 10.0711L9.2587 9.80631C10.2361 9.66432 11.3441 8.85927 11.7811 7.97366L12.5959 6.3227C12.718 6.07525 12.8467 5.98541 12.9034 5.98541C12.9601 5.98541 13.0888 6.07525 13.211 6.3227L14.0258 7.97366C14.4629 8.85927 15.5709 9.66424 16.5482 9.80631L18.3701 10.0711C18.6432 10.1108 18.7685 10.2054 18.786 10.2593C18.8035 10.3132 18.7578 10.4634 18.5602 10.6561L17.2419 11.9411C16.5346 12.6304 16.1114 13.933 16.2784 14.9064Z" fill="#F5F6FA"/>
</svg>
