<svg width="138" height="156" viewBox="0 0 138 156" fill="none" xmlns="http://www.w3.org/2000/svg">
<path d="M120.152 59.4691L122.381 56.7683C122.966 56.0597 123.466 55.2852 123.872 54.4601V54.4601C124.689 52.7992 125.106 50.9678 125.091 49.1108L125.078 47.5393L125.07 46.5667C125.055 44.7228 124.665 42.8981 123.925 41.2033V41.2033C123.396 39.992 122.694 38.8626 121.842 37.8502L119.957 35.6095L118.052 33.7203C117.215 32.8899 116.28 32.1646 115.268 31.5604V31.5604C114.185 30.9139 113.023 30.4115 111.812 30.0663L111.5 29.9775C109.995 29.5484 108.438 29.3306 106.876 29.3306H106.091H102.952H101.696" stroke="white" stroke-width="1.7603" stroke-linecap="round"/>
<path d="M106.962 135.444L113.111 134.289C115.651 133.812 118.007 132.651 119.928 130.932V130.932C121.683 129.36 123.016 127.372 123.807 125.149L124.245 123.917C124.785 122.398 125.132 120.817 125.28 119.208L125.451 117.348C125.573 116.021 125.545 114.683 125.369 113.36V113.36C125.101 111.353 124.495 109.404 123.576 107.595L123.05 106.561L122.031 105.05C121.025 103.56 119.737 102.282 118.239 101.289V101.289C117.231 100.621 116.139 100.089 114.992 99.7077L114.338 99.4901C113.409 99.1813 112.457 98.9455 111.493 98.785L109.169 98.3983" stroke="white" stroke-width="1.7603" stroke-linecap="round"/>
<path d="M110.739 60.0972L115.56 59.6951C117.356 59.5454 119.165 59.6682 120.928 60.0592V60.0592C122.915 60.4999 124.815 61.2752 126.546 62.3518L127.106 62.7C128.351 63.4738 129.505 64.3857 130.546 65.4181V65.4181C132.024 66.8843 133.258 68.5773 134.201 70.432L134.229 70.4881C134.961 71.9272 135.513 73.4491 135.875 75.0198L136.233 76.5724C136.499 77.7246 136.637 78.9014 136.647 80.0817V80.0817C136.658 81.4044 136.507 82.722 136.196 84.0052L135.449 87.0963V87.0963C134.658 89.9479 132.953 92.4547 130.595 94.2341L129.237 95.2588L126.741 97.1425V97.1425C124.248 98.8133 121.606 100.251 118.847 101.438L118.614 101.538" stroke="white" stroke-width="1.7603" stroke-linecap="round"/>
<path d="M69.9509 139.839L70.9961 142.232C71.5779 143.564 72.2801 144.841 73.0939 146.046L73.3534 146.431C74.0582 147.475 74.8639 148.448 75.7587 149.336V149.336C76.9665 150.534 78.3273 151.566 79.8051 152.407L80.6817 152.905C81.5547 153.402 82.4739 153.812 83.426 154.128L84.0739 154.343C85.1987 154.717 86.375 154.908 87.5574 154.908V154.908C88.4569 154.908 89.352 154.798 90.2229 154.579L91.5617 154.244C93.1323 153.851 94.6537 153.286 96.0987 152.561L96.3526 152.433C98.0621 151.575 99.653 150.501 101.087 149.237L102.221 148.238C103.342 147.25 104.289 146.08 105.023 144.777V144.777C105.925 143.176 106.487 141.405 106.676 139.572L106.972 136.699L106.941 132.932L106.935 132.289C106.922 130.647 106.526 129.028 105.78 127.56L105.752 127.505C105.254 126.525 104.602 125.63 103.821 124.855V124.855C103.342 124.381 102.911 123.86 102.534 123.302L101.83 122.258" stroke="white" stroke-width="1.7603" stroke-linecap="round"/>
<path d="M69.5372 32.5441L69.5372 27.4265L69.5828 25.6237C69.6228 24.0452 69.4226 22.4689 68.9893 20.9494V20.9494C68.6117 19.6256 68.0609 18.3577 67.3512 17.1791L66.5789 15.8965C66.0608 15.0361 65.4598 14.229 64.7846 13.4868L64.3252 12.9818C63.5275 12.105 62.5952 11.3629 61.5643 10.7839V10.7839C60.78 10.3435 59.9455 10.0014 59.0794 9.76517L57.7478 9.40205C56.1857 8.97606 54.5828 8.72331 52.9676 8.6483L52.6838 8.63512C50.7731 8.54639 48.86 8.70381 46.991 9.10354L45.5131 9.41962C44.0516 9.73221 42.6531 10.2883 41.3752 11.065V11.065C39.8049 12.0195 38.447 13.2887 37.3851 14.7944L35.7208 17.1544L33.9031 20.4543L33.5927 21.0178C32.8006 22.4557 32.3528 24.0609 32.2845 25.7064V25.7064C32.2372 26.8457 32.3726 27.986 32.6856 29.0834L32.9467 29.9988" stroke="white" stroke-width="1.7603" stroke-linecap="round"/>
<path d="M27.5415 98.3982V98.3982C25.0744 98.8099 22.7592 99.8475 20.8163 101.412L20.6603 101.538L17.5465 104.677L16.7258 105.713C15.6267 107.102 14.8163 108.697 14.342 110.406V110.406C14.0095 111.604 13.846 112.844 13.8563 114.09L13.8615 114.723L13.8821 117.235L13.9026 119.738C13.9129 120.991 14.1251 122.236 14.5311 123.425V123.425C14.9767 124.729 15.6491 125.947 16.5171 127.021L17.7422 128.537L17.8212 128.631C19.8533 131.045 22.4241 132.949 25.3235 134.188V134.188L29.1012 135.443L32.251 136.699" stroke="white" stroke-width="1.7603" stroke-linecap="round"/>
<path d="M36.533 122.886L35.256 124.498C34.4545 125.511 33.8075 126.637 33.3359 127.84V127.84C32.9911 128.721 32.7424 129.636 32.5942 130.571L32.479 131.298C32.3067 132.386 32.2247 133.486 32.2337 134.588L32.2342 134.647C32.2454 136.012 32.3913 137.373 32.67 138.711L32.9047 139.839L33.4136 141.57C33.9324 143.335 34.7213 145.011 35.7522 146.539V146.539C36.4085 147.511 37.1587 148.417 37.9919 149.244L38.457 149.705C39.4176 150.658 40.4999 151.479 41.6754 152.148V152.148C43.4214 153.141 45.3439 153.78 47.3321 154.028L49.3487 154.28H51.6958C53.8758 154.28 56.0294 153.837 58.0261 152.979V152.979C58.9267 152.591 59.7891 152.122 60.6028 151.577L61.1824 151.188C62.4754 150.321 63.6785 149.328 64.7743 148.224L65.6176 147.373L65.8286 147.118C67.7393 144.802 69.1417 142.109 69.946 139.211V139.211" stroke="white" stroke-width="1.7603" stroke-linecap="round"/>
<path d="M21.571 59.4694L20.3229 59.5586C15.4353 59.9079 10.8133 61.8631 7.17555 65.1203V65.1203L5.05852 67.5626C3.58823 69.2588 2.54565 71.2838 2.01694 73.4703V73.4703C1.74454 74.5969 1.61161 75.7537 1.62114 76.9149L1.6377 78.9338L1.65202 80.6797C1.66305 82.024 1.80685 83.3651 2.08132 84.6834L2.26088 85.5457C2.73221 87.8095 3.67775 89.9514 5.03502 91.8299V91.8299C5.77685 92.8566 6.63456 93.7948 7.59097 94.6257L8.87046 95.7372C10.4268 97.0893 12.1131 98.2836 13.9042 99.3022L15.6268 100.282L20.0376 102.166" stroke="white" stroke-width="1.7603" stroke-linecap="round"/>
<path d="M37.6598 30.5865L32.6127 30.0263C28.5725 29.5778 24.5184 30.604 21.1981 32.9157V32.9157C19.2423 34.2774 17.6028 36.0428 16.3888 38.0941L14.797 40.7838C13.3966 43.1501 12.6688 45.8577 12.6914 48.6172L12.7044 50.1989C12.7171 51.7491 13.1247 53.2736 13.8886 54.6287V54.6287C15.174 56.9086 17.3695 58.5373 19.9203 59.1031L21.5711 59.4693" stroke="white" stroke-width="1.7603" stroke-linecap="round"/>
<path d="M93.7882 59.4692H71.4626H44.1758L44.1807 60.0672L44.5829 109.102L94.8204 109.7L94.5604 78.0068L94.4083 59.4692H93.7882Z" stroke="white" stroke-width="1.7603"/>
<path d="M69.7036 109.7L69.9508 139.839" stroke="white" stroke-width="1.7603"/>
<path d="M69.5469 29.8646L69.7941 60.0031" stroke="white" stroke-width="1.7603"/>
<path d="M57.1035 94.418H54.3174L62.1958 72.4722H64.9392L73.1777 94.418H70.3915L63.6817 75.9441H63.5102L57.1035 94.418ZM58.062 85.8454H69.2924L69.3118 88.2029H58.0813L58.062 85.8454ZM79.0737 72.4722L79.2537 94.418H76.5961L76.4161 72.4722H79.0737Z" fill="white"/>
<circle r="5.65039" transform="matrix(1 0 0.00820296 0.999966 87.9302 35.2802)" stroke="white" stroke-width="1.25736"/>
<circle r="5.65039" transform="matrix(1 0 0.00820296 0.999966 25.459 74.2093)" stroke="white" stroke-width="1.25736"/>
<circle r="5.65039" transform="matrix(1 0 0.00820296 0.999966 53.5508 130.719)" stroke="white" stroke-width="1.25736"/>
<circle r="5.65039" transform="matrix(1 0 0.00820296 0.999966 88.7754 138.254)" stroke="white" stroke-width="1.25736"/>
<circle r="5.65039" transform="matrix(1 0 0.00820296 0.999966 112.162 80.4883)" stroke="white" stroke-width="1.25736"/>
<circle r="5.65039" transform="matrix(1 0 0.00820296 0.999966 46.54 41.5591)" stroke="white" stroke-width="1.25736"/>
<path d="M2.3246 86.1393H16.1386L16.0561 76.0931H19.8236" stroke="white" stroke-width="1.25736"/>
<path d="M52.7476 109.371L52.8712 124.44" stroke="white" stroke-width="1.25736"/>
<path d="M69.8301 125.068H88.0394L88.096 131.975" stroke="white" stroke-width="1.25736"/>
<path d="M133.418 69.1863H123.999L124.087 79.8603H118.436" stroke="white" stroke-width="1.25736"/>
<path d="M107.977 29.6293L108.029 35.9082H93.5867" stroke="white" stroke-width="1.25736"/>
<path d="M29.4937 30.2571L29.5864 41.5591H40.2608" stroke="white" stroke-width="1.25736"/>
<path d="M106.425 29.2052L105.549 24.3657L105.049 21.8657L104.628 20.3888C104.096 18.5236 103.32 16.7371 102.32 15.0765L101.985 14.5202C101.467 13.6598 100.866 12.8526 100.191 12.1105L99.7314 11.6055C98.9337 10.7287 98.0014 9.98654 96.9705 9.40757V9.40757C96.1862 8.96715 95.3517 8.62501 94.4856 8.38882L93.154 8.0257C91.5919 7.59971 89.989 7.34695 88.3738 7.27195L87.9055 7.2502C86.1173 7.16716 84.3268 7.31449 82.5776 7.68859L80.7071 8.08865C79.3884 8.3707 78.1345 8.8983 77.01 9.64438V9.64438C76.3713 10.0681 75.7794 10.5589 75.244 11.1087L74.5326 11.8393C73.2556 13.1508 72.1598 14.6297 71.2748 16.2365L70.7906 17.1154V17.1154C69.9727 18.9277 69.5495 20.8969 69.5495 22.8909L69.5495 24.8657L69.5503 29.5075" stroke="white" stroke-width="1.7603" stroke-linecap="round"/>
</svg>
