<svg width="135" height="135" viewBox="0 0 135 135" fill="none" xmlns="http://www.w3.org/2000/svg">
<path d="M102.497 84.0797L112.492 88.7831" stroke="white" stroke-width="1.88603" stroke-linecap="round"/>
<path d="M22.5391 47.0404L32.5338 51.7438" stroke="white" stroke-width="1.88603" stroke-linecap="round"/>
<path d="M32.5337 32.9302L40.1767 40.5732" stroke="white" stroke-width="1.88603" stroke-linecap="round"/>
<path d="M83.6833 102.893L88.3868 112.3" stroke="white" stroke-width="1.88603" stroke-linecap="round"/>
<path d="M94.8538 95.2505L102.497 102.306" stroke="white" stroke-width="1.88603" stroke-linecap="round"/>
<path d="M21.9509 78.7885C20.892 87.0212 21.9507 92.8987 24.3024 98.19" stroke="white" stroke-width="1.88603" stroke-linecap="round"/>
<path d="M113.079 55.8593C114.138 47.6265 113.079 41.7491 110.728 36.4577" stroke="white" stroke-width="1.88603" stroke-linecap="round"/>
<path d="M24.8906 71.1456L25.2832 70.5567C25.8043 69.775 26.3945 69.0417 27.0466 68.3654L40.7121 54.1936C41.5069 53.3694 42.5815 52.6953 43.7043 52.9198V52.9198C45.2735 53.2337 46.9732 53.715 48.4077 54.0957V54.0957C49.8593 54.4808 51.0345 55.5639 51.4825 56.9974L53.1317 62.275C53.4805 63.3911 53.1809 64.6085 52.3541 65.4353L40.7219 77.0676C40.3593 77.4302 40.0335 77.8277 39.749 78.2543V78.2543C39.2539 78.997 38.8902 79.8192 38.6737 80.6851L38.6572 80.7513C38.495 81.4002 38.4129 82.0665 38.4129 82.7353C38.4129 83.3779 38.4129 84.179 38.4129 84.6678" stroke="white" stroke-width="1.88603" stroke-linecap="round"/>
<path d="M110.728 63.5023L110.335 64.0912C109.814 64.8728 109.224 65.6062 108.572 66.2825L94.9063 80.4542C94.1115 81.2784 93.0369 81.9526 91.9141 81.728V81.728C90.3449 81.4142 88.6452 80.9328 87.2107 80.5522V80.5522C85.7591 80.1671 84.5839 79.084 84.1359 77.6505L82.4867 72.3729C82.1379 71.2568 82.4375 70.0394 83.2643 69.2126L94.8965 57.5803C95.2591 57.2177 95.585 56.8202 95.8694 56.3935V56.3935C96.3645 55.6509 96.7282 54.8287 96.9447 53.9628L96.9612 53.8966C97.1234 53.2477 97.2055 52.5814 97.2055 51.9126C97.2055 51.27 97.2055 50.4688 97.2055 49.98" stroke="white" stroke-width="1.88603" stroke-linecap="round"/>
<path d="M128.034 18.0867L95.3139 50.8712C92.2461 53.945 87.2672 53.9499 84.1934 50.8821C81.1195 47.8143 81.1146 42.8354 84.1824 39.7616L116.902 6.97714C119.97 3.90327 124.949 3.89838 128.023 6.9662C131.097 10.034 131.102 15.0129 128.034 18.0867Z" stroke="white" stroke-width="1.99604"/>
<path d="M50.8176 95.1114L18.0976 127.896C15.0298 130.97 10.0509 130.975 6.97707 127.907C3.9032 124.839 3.8983 119.86 6.96613 116.786L39.6861 84.0018C42.7539 80.9279 47.7328 80.923 50.8066 83.9909C53.8805 87.0587 53.8854 92.0375 50.8176 95.1114Z" stroke="white" stroke-width="1.99604"/>
<path d="M71.337 81.7281L57.7563 94.3722C55.5576 96.4193 52.5647 97.3868 49.5837 97.0142V97.0142" stroke="white" stroke-width="1.88603" stroke-linecap="round"/>
<path d="M71.3369 81.728L74.2765 89.959" stroke="white" stroke-width="1.88603" stroke-linecap="round"/>
<path d="M82.5073 92.8987L74.2764 89.959" stroke="white" stroke-width="1.88603" stroke-linecap="round"/>
<path d="M36.6492 109.949C43.1164 114.652 52.5232 115.24 63.1059 110.537C70.161 107.009 76.0402 99.3659 82.5074 92.8987" stroke="white" stroke-width="1.88603" stroke-linecap="round"/>
<path d="M63.694 53.8155L77.2747 41.1714C79.4734 39.1243 82.4663 38.1568 85.4473 38.5294V38.5294" stroke="white" stroke-width="1.88603" stroke-linecap="round"/>
<path d="M63.6936 53.8154L60.754 45.5845" stroke="white" stroke-width="1.88603" stroke-linecap="round"/>
<path d="M52.5232 42.6448L60.7542 45.5845" stroke="white" stroke-width="1.88603" stroke-linecap="round"/>
<path d="M98.3816 25.5949C91.9144 20.8915 82.5076 20.3036 71.9249 25.007C64.8698 28.5345 58.9905 36.1776 52.5233 42.6448" stroke="white" stroke-width="1.88603" stroke-linecap="round"/>
<path d="M46.0559 22.3475L51.3472 32.9302" stroke="white" stroke-width="1.88603" stroke-linecap="round"/>
</svg>
