<svg width="137" height="136" viewBox="0 0 137 136" fill="none" xmlns="http://www.w3.org/2000/svg">
<path d="M1 135.316L1 110.818C1 106.907 4.17022 103.737 8.0809 103.737H51.8667C55.7774 103.737 58.9476 106.907 58.9476 110.818V135.316" stroke="white" stroke-width="1.88603"/>
<path d="M14.1057 120.001L14.1057 135.159" stroke="white" stroke-width="1.88603"/>
<path d="M46.4741 120.159V135.474" stroke="white" stroke-width="1.88603"/>
<path d="M47.4249 85.5794C47.4249 94.992 39.7253 102.636 30.21 102.636C20.6946 102.636 12.995 94.992 12.995 85.5794C12.995 76.1668 20.6946 68.5223 30.21 68.5223C39.7253 68.5223 47.4249 76.1668 47.4249 85.5794Z" stroke="white" stroke-width="1.88603"/>
<path d="M78.0527 67.737V43.2388C78.0527 39.3282 81.223 36.158 85.1336 36.158H128.919C132.83 36.158 136 39.3282 136 43.2389V67.737" stroke="white" stroke-width="1.88603"/>
<path d="M91.1584 52.4211V67.5791" stroke="white" stroke-width="1.88603"/>
<path d="M123.527 52.5791V67.895" stroke="white" stroke-width="1.88603"/>
<path d="M124.479 18.0001C124.479 27.4127 116.779 35.0571 107.264 35.0571C97.7486 35.0571 90.049 27.4127 90.049 18.0001C90.049 8.58747 97.7486 0.943017 107.264 0.943017C116.779 0.943017 124.479 8.58747 124.479 18.0001Z" stroke="white" stroke-width="1.88603"/>
<path d="M128.896 73.895V73.895C128.896 99.3054 108.296 119.905 82.8859 119.905H73.2255" stroke="white" stroke-width="1.88603"/>
<path d="M128.896 73.895V73.895C128.896 99.3054 108.296 119.905 82.8859 119.905H73.2255" stroke="white" stroke-width="1.88603"/>
<path d="M74.2425 124.396L67.8052 120.488L74.408 116.261L74.2425 124.396Z" fill="white"/>
<path d="M12.052 64.2634V64.2634C12.052 38.853 32.6512 18.2538 58.0616 18.2538H67.722" stroke="white" stroke-width="1.88603"/>
<path d="M12.052 64.2634V64.2634C12.052 38.853 32.6512 18.2538 58.0616 18.2538H67.722" stroke="white" stroke-width="1.88603"/>
<path d="M65.9452 14.3307L72.3826 18.2392L65.7797 22.4654L65.9452 14.3307Z" fill="white"/>
</svg>
