<svg width="12" height="22" viewBox="0 0 12 22" fill="none" xmlns="http://www.w3.org/2000/svg">
<path d="M0.354879 11.7172H2.76641V21.6452C2.76641 21.8412 2.92523 22 3.12125 22H7.21011C7.40614 22 7.56495 21.8412 7.56495 21.6452V11.764H10.3372C10.5175 11.764 10.6692 11.6287 10.6898 11.4497L11.1108 7.7947C11.1224 7.69416 11.0905 7.59344 11.0232 7.51798C10.9559 7.44249 10.8595 7.39926 10.7584 7.39926H7.56512V5.10812C7.56512 4.41749 7.93697 4.06725 8.67053 4.06725C8.77508 4.06725 10.7584 4.06725 10.7584 4.06725C10.9544 4.06725 11.1132 3.90835 11.1132 3.71241V0.357457C11.1132 0.161434 10.9544 0.00262109 10.7584 0.00262109H7.88098C7.8607 0.00163281 7.81563 0 7.7492 0C7.24995 0 5.51457 0.0980116 4.14373 1.3591C2.62487 2.75662 2.83602 4.42986 2.88647 4.71999V7.39918H0.354836C0.158813 7.39918 0 7.55799 0 7.75401V11.3623C4.29688e-05 11.5583 0.158855 11.7172 0.354879 11.7172Z" fill="#737380"/>
</svg>
