<svg width="22" height="22" viewBox="0 0 22 22" fill="none" xmlns="http://www.w3.org/2000/svg">
<path d="M15.9287 0H6.07107C2.72349 0 0 2.72362 0 6.0712V15.9288C0 19.2765 2.72349 22 6.07107 22H15.9287C19.2765 22 22 19.2764 22 15.9288V6.0712C22.0001 2.72362 19.2765 0 15.9287 0ZM20.0482 15.9288C20.0482 18.2002 18.2002 20.0481 15.9288 20.0481H6.07107C3.79979 20.0482 1.95195 18.2002 1.95195 15.9288V6.0712C1.95195 3.79992 3.79979 1.95195 6.07107 1.95195H15.9287C18.2001 1.95195 20.0481 3.79992 20.0481 6.0712L20.0482 15.9288Z" fill="#737380"/>
<path d="M10.9999 5.33142C7.87405 5.33142 5.33105 7.87442 5.33105 11.0003C5.33105 14.126 7.87405 16.6688 10.9999 16.6688C14.1257 16.6688 16.6687 14.126 16.6687 11.0003C16.6687 7.87442 14.1257 5.33142 10.9999 5.33142ZM10.9999 14.7168C8.95048 14.7168 7.283 13.0495 7.283 11.0001C7.283 8.95059 8.95035 7.28324 10.9999 7.28324C13.0494 7.28324 14.7168 8.95059 14.7168 11.0001C14.7168 13.0495 13.0493 14.7168 10.9999 14.7168Z" fill="#737380"/>
<path d="M16.9065 3.6763C16.5305 3.6763 16.161 3.82855 15.8954 4.09532C15.6285 4.36078 15.4751 4.73035 15.4751 5.10773C15.4751 5.48393 15.6287 5.85337 15.8954 6.12014C16.1609 6.3856 16.5305 6.53915 16.9065 6.53915C17.2839 6.53915 17.6522 6.3856 17.9189 6.12014C18.1857 5.85337 18.338 5.4838 18.338 5.10773C18.338 4.73035 18.1857 4.36078 17.9189 4.09532C17.6535 3.82855 17.2839 3.6763 16.9065 3.6763Z" fill="#737380"/>
</svg>
