<svg width="27" height="22" viewBox="0 0 27 22" fill="none" xmlns="http://www.w3.org/2000/svg">
<path d="M26.2619 2.53898C25.8398 2.72618 25.4058 2.8842 24.9623 3.01252C25.4874 2.41874 25.8876 1.7201 26.132 0.955593C26.1868 0.784239 26.13 0.596668 25.9891 0.484567C25.8484 0.372413 25.653 0.358977 25.4981 0.450768C24.5563 1.00933 23.5403 1.41077 22.4749 1.64547C21.4017 0.596826 19.9441 0 18.4372 0C15.2565 0 12.6688 2.58768 12.6688 5.7683C12.6688 6.0188 12.6846 6.26793 12.716 6.5136C8.76904 6.16706 5.0996 4.22706 2.57983 1.13613C2.49003 1.02597 2.35169 0.966562 2.21004 0.977951C2.06834 0.989024 1.94097 1.06895 1.86938 1.19181C1.35831 2.06874 1.08813 3.07172 1.08813 4.09224C1.08813 5.48217 1.58435 6.80089 2.46096 7.83137C2.1944 7.73906 1.93577 7.6237 1.6889 7.48667C1.55638 7.41288 1.39463 7.41403 1.26295 7.4895C1.13122 7.56502 1.04861 7.70384 1.0451 7.85562C1.04447 7.88118 1.04447 7.90673 1.04447 7.93266C1.04447 10.0073 2.16108 11.8752 3.86826 12.8933C3.72158 12.8786 3.57505 12.8574 3.42941 12.8296C3.27926 12.8008 3.12491 12.8535 3.02367 12.968C2.92228 13.0824 2.88869 13.2419 2.93545 13.3875C3.56733 15.3604 5.19422 16.8115 7.16099 17.2539C5.52974 18.2756 3.66432 18.8108 1.70606 18.8108C1.29743 18.8108 0.886497 18.7868 0.484327 18.7392C0.284528 18.7154 0.0934932 18.8334 0.0254239 19.0234C-0.0426453 19.2135 0.0295175 19.4254 0.199454 19.5344C2.71518 21.1474 5.62405 22 8.61149 22C14.4844 22 18.1583 19.2306 20.2061 16.9073C22.7598 14.0103 24.2243 10.1759 24.2243 6.38722C24.2243 6.22894 24.2219 6.06913 24.217 5.90979C25.2245 5.15075 26.0918 4.2321 26.7977 3.17627C26.9049 3.01593 26.8933 2.80396 26.7691 2.65638C26.6452 2.50854 26.4384 2.46078 26.2619 2.53898Z" fill="#737380"/>
</svg>
