<svg width="171" height="174" viewBox="0 0 171 174" fill="none" xmlns="http://www.w3.org/2000/svg">
<path d="M111.512 50.7744V53.6092C111.512 56.7511 114.059 59.2981 117.201 59.2981V59.2981H120.525C123.402 59.2981 125.734 61.6302 125.734 64.507V64.507" stroke="#EF5940" stroke-width="3" stroke-linecap="round"/>
<path d="M66.9485 59.7716L68.3917 59.5915C69.7338 59.4239 70.7411 58.283 70.7411 56.9304V56.9304" stroke="#EF5940" stroke-width="3" stroke-linecap="round"/>
<path d="M116.252 33.2536H115.804C113.622 33.2536 111.783 34.8776 111.512 37.0419V37.0419V38.936" stroke="#EF5940" stroke-width="3" stroke-linecap="round"/>
<path d="M70.741 37.0417V56.9303" stroke="#EF5940" stroke-width="3" stroke-linecap="round"/>
<path d="M111.512 37.0417V51.2479" stroke="#EF5940" stroke-width="3" stroke-linecap="round"/>
<path d="M66.9485 34.2007H67.8999C69.469 34.2007 70.7411 35.4727 70.7411 37.0419V37.0419" stroke="#EF5940" stroke-width="3" stroke-linecap="round"/>
<path d="M45.615 17.6266V17.6266C45.615 15.2728 47.5231 13.3647 49.8768 13.3647H51.3039V13.3647C54.7076 13.3647 57.4669 16.124 57.4669 19.5278V24.7297L57.4669 28.9915" stroke="#EF5940" stroke-width="3" stroke-linecap="round"/>
<path d="M137.586 75.8719V75.8719C137.586 78.2257 135.678 80.1338 133.324 80.1338H131.897V80.1338C128.494 80.1338 125.734 77.3745 125.734 73.9708V68.7689L125.734 64.507" stroke="#EF5940" stroke-width="3" stroke-linecap="round"/>
<path d="M37.0818 59.7715H66.9486" stroke="#EF5940" stroke-width="3" stroke-linecap="round"/>
<path d="M116.252 33.2534H146.119" stroke="#EF5940" stroke-width="3" stroke-linecap="round"/>
<path d="M57.467 28.9917V28.9917C57.467 31.8685 59.7992 34.2006 62.676 34.2006H66.9486" stroke="#EF5940" stroke-width="3" stroke-linecap="round"/>
<path d="M37.0818 33.7271V33.7271C41.5491 34.4708 45.6152 31.0257 45.6152 26.4969V17.1533" stroke="#EF5940" stroke-width="3" stroke-linecap="round"/>
<path d="M146.119 59.298V59.298C141.652 58.5543 137.586 61.9995 137.586 66.5282V75.8718" stroke="#EF5940" stroke-width="3" stroke-linecap="round"/>
<path d="M106.297 77.2925H116.727" stroke="#EF5940" stroke-width="4" stroke-linecap="round"/>
<path d="M82.593 73.9778V85.3427" stroke="#EF5940" stroke-width="3" stroke-linecap="round"/>
<path d="M74.0596 10.9973V21.8887" stroke="#EF5940" stroke-width="4" stroke-linecap="round"/>
<path d="M68.3706 16.2061H79.2744" stroke="#EF5940" stroke-width="4" stroke-linecap="round"/>
<path d="M85.4375 154.479V172" stroke="#EF5940" stroke-width="3" stroke-linecap="round"/>
<path d="M104.401 145.955V145.955C111.732 145.955 117.675 151.898 117.675 159.229V172" stroke="#EF5940" stroke-width="3" stroke-linecap="round"/>
<path d="M94.4449 136.485V136.485C93.4431 140.988 96.6545 145.337 101.253 145.704L104.401 145.956" stroke="#EF5940" stroke-width="3" stroke-linecap="round"/>
<path d="M66.0002 145.955L66.699 146.653C77.1964 157.139 94.2984 156.822 104.4 145.955V145.955" stroke="#EF5940" stroke-width="3" stroke-linecap="round"/>
<path d="M64.5781 145.955V145.955C58.4811 146.22 53.6743 151.24 53.6743 157.343V171.526" stroke="#EF5940" stroke-width="3" stroke-linecap="round"/>
<path d="M76.9041 136.485V136.485C76.9041 141.715 72.6639 145.956 67.4334 145.956H64.5781" stroke="#EF5940" stroke-width="3" stroke-linecap="round"/>
<path d="M61.2594 101.917V101.917C56.1854 114.72 61.8765 129.268 74.2918 135.23L76.904 136.485" stroke="#EF5940" stroke-width="3" stroke-linecap="round"/>
<path d="M54.1484 85.8162V85.8162C54.6755 98.979 65.6175 109.312 78.7889 109.085L82.5931 109.02H111.986" stroke="#EF5940" stroke-width="3" stroke-linecap="round"/>
<path d="M131.423 94.3399C145.645 93.3929 156.075 119.911 131.423 123.699" stroke="#EF5940" stroke-width="3" stroke-linecap="round"/>
<path d="M100.608 19.0474H157.687C163.876 19.0474 168.904 24.0461 168.94 30.2358L169.326 96.4495C169.341 99.1245 168.867 101.78 167.927 104.284V104.284C166.872 107.095 165.544 109.402 163.776 111.94C162.483 113.795 160.802 115.342 158.92 116.596V116.596L158.109 117.157C154.571 119.604 150.614 121.38 146.434 122.398V122.398C144.176 122.949 141.868 123.273 139.545 123.368L131.423 123.699" stroke="#EF5940" stroke-width="3" stroke-linecap="round"/>
<path d="M39.452 73.9778C34.7112 74.4513 33.1462 74.8503 29.9705 77.7661L28.4086 79.5212C26.9432 81.1679 25.8983 83.1448 25.3631 85.2831L25.3446 85.357C24.9552 86.913 24.8518 88.5267 25.0394 90.1197V90.1197C25.4636 93.7215 27.347 96.9915 30.2495 99.1659L30.4052 99.2825C31.0622 99.7748 31.7621 100.207 32.4966 100.574L35.1853 101.917L38.5039 103.337" stroke="#EF5940" stroke-width="3" stroke-linecap="round"/>
<path d="M2 73.0307V13.2539C2 7.03856 7.03857 2 13.254 2H88.88C95.0954 2 100.134 7.03857 100.134 13.254V62.7238C100.134 68.9392 95.0954 73.9777 88.88 73.9777H39.9262" stroke="#EF5940" stroke-width="3" stroke-linecap="square"/>
<path d="M2 73.5042C2.06955 76.2508 2.22205 78.0288 2.54251 80.1178C2.78644 81.708 3.2248 83.2613 3.77514 84.773L3.91589 85.1596C4.5331 86.855 5.33352 88.4779 6.30295 89.9996L6.58822 90.4474C7.63301 92.0873 8.9006 93.5741 10.3547 94.8651V94.8651C11.732 96.0881 13.2644 97.1244 14.9122 97.9474L15.6439 98.3128C17.2895 99.1346 19.0142 99.7873 20.7916 100.261L25.2298 101.443L30.9187 102.39L38.5039 103.337" stroke="#EF5940" stroke-width="3" stroke-linecap="round"/>
<path d="M106.771 94.3398H132.845" stroke="#EF5940" stroke-width="3" stroke-linecap="square"/>
<path d="M54.1484 85.8162H86.965C89.721 85.8162 92.4588 86.2635 95.0715 87.1407V87.1407C115.695 94.0652 118.704 121.989 100.029 133.148L94.445 136.485" stroke="#EF5940" stroke-width="3" stroke-linecap="round"/>
<rect x="25.7815" y="31.9124" width="10.2742" height="30.1476" stroke="#EF5940" stroke-width="3"/>
<rect x="147.145" y="31.9124" width="10.2742" height="30.1476" stroke="#EF5940" stroke-width="3"/>
</svg>
