<svg width="161" height="170" viewBox="0 0 161 170" fill="none" xmlns="http://www.w3.org/2000/svg">
<mask id="path-1-inside-1_16_86" fill="white">
<path d="M139.328 99.3819C136.835 98.0098 134.001 98.5843 131.257 99.1448C129.841 99.4349 128.392 99.7193 127.052 99.7165C129.956 93.5923 135.14 88.3745 141.933 84.7769C141.886 85.0809 141.942 85.4072 142.112 85.6944C142.506 86.3498 143.351 86.5645 144.01 86.1741C145.652 85.198 146.194 83.1538 145.25 81.5196L143.488 80.9451C140.213 82.3953 137.234 84.1857 134.59 86.2466C134.78 84.3279 134.853 80.0722 132.41 76.4021C130.254 73.1671 126.778 71.3376 124.665 70.4592V14.0054C124.665 6.28039 118.374 0 110.643 0H14.0185C6.28754 0 0 6.28318 0 14.0054V124.024L0.407629 125.003L29.9496 154.511L30.9296 154.918H87.2857C90.9069 158.711 95.3406 161.963 100.478 164.389C102.536 165.362 105.593 165.443 108.547 165.518C110.476 165.571 112.299 165.616 113.606 165.903C115.01 166.21 116.749 166.907 118.592 167.643C121.487 168.804 124.478 170 126.949 170C127.03 170 127.111 170 127.189 169.997C143.955 169.465 155.879 158.633 159.911 140.285C163.373 124.506 155.103 108.069 139.328 99.3819ZM124.662 98.3277V91.1103C127.303 90.6641 129.579 89.9195 131.17 89.2669C128.451 91.972 126.259 95.023 124.662 98.3277ZM111.252 84.1187L108.667 86.0597C106.883 84.9777 105.411 83.8343 104.359 82.9223L111.252 84.1187ZM104.495 81.6618C107.357 80.4961 112.62 78.8758 118.148 79.8407C123.718 80.8001 128.266 84.1327 130.642 86.1992L104.495 81.6618ZM112.969 84.4171L117.403 85.1869L113.296 88.2713C112.076 87.8306 110.928 87.3147 109.87 86.743L112.969 84.4171ZM118.852 85.6833C118.927 85.6275 118.941 85.5355 118.983 85.4602L123.816 86.2996L119.558 89.4983C118.654 89.4677 117.735 89.3979 116.8 89.2362C116.102 89.1163 115.426 88.9462 114.762 88.7593L118.852 85.6833ZM125.502 86.6175C125.511 86.6119 125.508 86.6008 125.516 86.5924L130.397 87.4402C128.406 88.249 125.279 89.2501 121.702 89.4733L125.502 86.6175ZM123.422 72.085C125.212 72.7795 128.741 74.4667 130.762 77.4953C132.591 80.2395 132.759 83.4717 132.664 85.343C131.234 84.01 128.613 81.871 125.204 80.167C123.35 77.2583 123.294 73.8308 123.422 72.085ZM29.5392 150.191L4.72682 125.407H18.2875C24.4941 125.407 29.5392 130.449 29.5392 136.643V150.191ZM32.3116 152.146V136.643C32.3116 128.921 26.0213 122.641 18.2903 122.641H2.76965V14.0054C2.76965 7.80587 7.81755 2.76649 14.0185 2.76649H110.638C116.844 2.76649 121.89 7.80866 121.89 14.0054V69.5249L121.823 69.5054L121.616 70.5568C121.574 70.7604 120.837 74.8515 122.437 78.9873C121.183 78.53 119.882 78.1284 118.486 77.8886C109.582 76.3547 101.625 80.7833 101.293 80.9702L100.224 81.5781L101.045 82.4901C101.262 82.7299 105.612 87.4374 112.134 89.9362C112.26 90.1007 112.45 90.1872 112.642 90.1872C112.665 90.1872 112.687 90.1677 112.71 90.1649C113.902 90.5888 115.141 90.9569 116.462 91.1828C117.777 91.4087 119.07 91.5035 120.32 91.5035C120.859 91.5035 121.373 91.4533 121.892 91.4198V98.3416C120.89 97.9177 119.899 97.4492 118.927 96.9835C115.446 95.313 111.864 93.5951 107.893 94.3453C92.4006 97.3154 80.4119 108.245 77.3491 122.186C75.0317 132.739 77.9968 143.554 84.8511 152.146H32.3116ZM157.2 139.688C155.005 149.686 148.173 166.559 127.097 167.228C125.033 167.317 122.339 166.163 119.617 165.075C117.665 164.297 115.823 163.558 114.195 163.201C112.629 162.858 110.68 162.805 108.616 162.752C106.073 162.688 103.192 162.61 101.659 161.887C85.5519 154.28 76.6706 138.202 80.0545 122.783C82.9246 109.723 93.7938 99.8699 108.418 97.0644C108.89 96.9723 109.362 96.9305 109.837 96.9305C112.414 96.9305 115.01 98.1743 117.732 99.4795C120.013 100.575 122.373 101.705 124.991 102.279C127.272 102.781 129.581 102.313 131.812 101.856C134.166 101.376 136.391 100.921 137.994 101.805C152.682 109.896 160.402 125.12 157.2 139.688Z"/>
<path d="M136.528 105.515C134.56 104.463 132.231 104.898 129.984 105.319C128.25 105.646 126.457 105.986 124.866 105.632C122.817 105.183 120.873 104.274 118.994 103.395C115.932 101.962 113.045 100.606 109.845 101.172C96.5552 103.515 86.733 112.104 84.2062 123.592C81.2328 137.137 89.4133 151.329 104.105 158.103C105.771 158.87 108.337 158.959 110.817 159.043C112.503 159.099 114.1 159.152 115.278 159.411C116.537 159.687 118.062 160.284 119.673 160.917C122.144 161.887 124.696 162.889 126.714 162.889C126.762 162.889 126.803 162.889 126.848 162.886C140.99 162.576 150.979 153.85 154.251 138.947C157.071 126.141 149.946 112.704 136.528 105.515ZM153.017 138.676C149.879 152.963 140.333 161.327 126.823 161.625C125.011 161.648 122.546 160.688 120.136 159.743C118.475 159.09 116.906 158.474 115.549 158.176C114.256 157.891 112.606 157.838 110.858 157.777C108.502 157.699 106.065 157.615 104.632 156.954C90.4882 150.431 82.5952 136.824 85.4431 123.865C87.8553 112.885 97.2895 104.67 110.06 102.422C110.484 102.346 110.906 102.313 111.328 102.313C113.692 102.313 116.015 103.401 118.455 104.541C120.396 105.45 122.403 106.39 124.589 106.87C126.438 107.271 128.356 106.915 130.212 106.566C132.337 106.167 134.345 105.788 135.925 106.633C148.841 113.549 155.709 126.428 153.017 138.676Z"/>
<path d="M114.781 124.835L114.2 124.894C114.111 125.011 112.034 127.825 112.349 131.079C112.662 134.331 115.236 136.696 115.348 136.797L115.929 136.738C116.018 136.621 118.095 133.807 117.78 130.555C117.467 127.301 114.893 124.936 114.781 124.835ZM115.552 135.879C114.873 135.151 113.357 133.294 113.134 131.001C112.916 128.715 114.05 126.595 114.577 125.75C115.256 126.478 116.772 128.338 116.995 130.63C117.213 132.917 116.079 135.034 115.552 135.879Z"/>
<path d="M125.17 127.027C125.033 127.083 121.775 128.349 120.295 131.266V131.269C118.821 134.186 119.737 137.558 119.773 137.7L120.298 137.965C120.435 137.909 123.693 136.643 125.17 133.726C126.644 130.809 125.731 127.434 125.695 127.292L125.17 127.027ZM124.461 133.372C123.425 135.419 121.334 136.604 120.438 137.033C120.253 136.057 119.963 133.681 121.004 131.626C122.04 129.573 124.134 128.391 125.028 127.959C125.212 128.935 125.5 131.316 124.461 133.372Z"/>
<path d="M42.5415 40.3178C43.5941 39.1939 44.3786 37.9445 44.8979 36.5669C45.42 35.192 45.6629 33.7558 45.6406 32.2582C45.6155 30.7829 45.3307 29.3857 44.7862 28.0638C44.2418 26.7419 43.4433 25.5372 42.3907 24.4467C41.3409 23.3563 39.9533 22.4918 38.2307 21.8531C36.508 21.2145 34.5453 20.8938 32.3396 20.8938H21.8892V44.013H32.3396C34.5704 44.013 36.5666 43.6783 38.3284 43.0062C40.0845 42.3369 41.4889 41.4389 42.5415 40.3178ZM32.334 39.8214H26.8645V25.024H32.3368C35.0227 25.024 37.0692 25.724 38.4764 27.1212C39.8807 28.5212 40.6094 30.2196 40.6597 32.2247C40.7127 34.3163 40.0371 36.1067 38.6439 37.5904C37.2507 39.0768 35.1483 39.8214 32.334 39.8214Z"/>
<path d="M54.3796 20.8966H49.4015V44.0158H54.3796V20.8966Z"/>
<path d="M78.9349 39.7238H63.9978V34.5032H78.4045V30.4427H63.9978V25.1216H78.9349V20.8966H59.0169V44.0158H78.9349V39.7238Z"/>
<path d="M91.245 44.0158H96.2622V24.8595H104.702V20.8966H82.8104V24.8595H91.245V44.0158Z"/>
<path d="M36.9521 62.2937C36.9521 62.7287 37.3067 63.0829 37.7422 63.0829H105.975C106.411 63.0829 106.766 62.7287 106.766 62.2937C106.766 61.8586 106.411 61.5044 105.975 61.5044H37.7422C37.3067 61.5044 36.9521 61.8586 36.9521 62.2937Z"/>
<path d="M105.978 73.2227H37.7422C37.3067 73.2227 36.9521 73.5769 36.9521 74.012C36.9521 74.447 37.3067 74.8012 37.7422 74.8012H105.975C106.411 74.8012 106.766 74.447 106.766 74.012C106.766 73.5769 106.414 73.2227 105.978 73.2227Z"/>
<path d="M95.8378 84.9415H37.7422C37.3067 84.9415 36.9521 85.2957 36.9521 85.7307C36.9521 86.1658 37.3067 86.5199 37.7422 86.5199H95.8378C96.2733 86.5199 96.6279 86.1658 96.6279 85.7307C96.6279 85.2957 96.2733 84.9415 95.8378 84.9415Z"/>
<path d="M74.1803 96.6627H37.0135C36.5779 96.6627 36.2233 97.0169 36.2233 97.4519C36.2233 97.887 36.5779 98.2412 37.0135 98.2412H74.1803C74.6159 98.2412 74.9704 97.887 74.9704 97.4519C74.9704 97.0169 74.6159 96.6627 74.1803 96.6627Z"/>
<path d="M74.1803 108.381H37.0135C36.5779 108.381 36.2233 108.736 36.2233 109.171C36.2233 109.606 36.5779 109.96 37.0135 109.96H74.1803C74.6159 109.96 74.9704 109.606 74.9704 109.171C74.9704 108.736 74.6159 108.381 74.1803 108.381Z"/>
<path d="M22.2102 57.0785L21.4201 57.8677V64.3879L22.2102 65.1772H28.7407L29.5308 64.3879V57.8677L28.7407 57.0785H22.2102ZM27.9505 63.5987H23.0031V58.6597H27.9505V63.5987Z"/>
<path d="M22.2102 69.2096L21.4201 69.9989V76.5219L22.2102 77.3111H28.7407L29.5308 76.5219V69.9989L28.7407 69.2096H22.2102ZM27.9505 75.7327H23.0031V70.7909H27.9505V75.7327Z"/>
<path d="M22.2102 81.3383L21.4201 82.1275V88.6506L22.2102 89.4398H28.7407L29.5308 88.6506V82.1275L28.7407 81.3383H22.2102ZM27.9505 87.8613H23.0031V82.9196H27.9505V87.8613Z"/>
<path d="M22.2102 93.2297L21.4201 94.0189V100.539L22.2102 101.328H28.7407L29.5308 100.539V94.0189L28.7407 93.2297H22.2102ZM27.9505 99.7499H23.0031V94.811H27.9505V99.7499Z"/>
<path d="M22.2102 105.361L21.4201 106.15V112.67L22.2102 113.46H28.7407L29.5308 112.67V106.15L28.7407 105.361H22.2102ZM27.9505 111.881H23.0031V106.942H27.9505V111.881Z"/>
</mask>
<path d="M139.328 99.3819C136.835 98.0098 134.001 98.5843 131.257 99.1448C129.841 99.4349 128.392 99.7193 127.052 99.7165C129.956 93.5923 135.14 88.3745 141.933 84.7769C141.886 85.0809 141.942 85.4072 142.112 85.6944C142.506 86.3498 143.351 86.5645 144.01 86.1741C145.652 85.198 146.194 83.1538 145.25 81.5196L143.488 80.9451C140.213 82.3953 137.234 84.1857 134.59 86.2466C134.78 84.3279 134.853 80.0722 132.41 76.4021C130.254 73.1671 126.778 71.3376 124.665 70.4592V14.0054C124.665 6.28039 118.374 0 110.643 0H14.0185C6.28754 0 0 6.28318 0 14.0054V124.024L0.407629 125.003L29.9496 154.511L30.9296 154.918H87.2857C90.9069 158.711 95.3406 161.963 100.478 164.389C102.536 165.362 105.593 165.443 108.547 165.518C110.476 165.571 112.299 165.616 113.606 165.903C115.01 166.21 116.749 166.907 118.592 167.643C121.487 168.804 124.478 170 126.949 170C127.03 170 127.111 170 127.189 169.997C143.955 169.465 155.879 158.633 159.911 140.285C163.373 124.506 155.103 108.069 139.328 99.3819ZM124.662 98.3277V91.1103C127.303 90.6641 129.579 89.9195 131.17 89.2669C128.451 91.972 126.259 95.023 124.662 98.3277ZM111.252 84.1187L108.667 86.0597C106.883 84.9777 105.411 83.8343 104.359 82.9223L111.252 84.1187ZM104.495 81.6618C107.357 80.4961 112.62 78.8758 118.148 79.8407C123.718 80.8001 128.266 84.1327 130.642 86.1992L104.495 81.6618ZM112.969 84.4171L117.403 85.1869L113.296 88.2713C112.076 87.8306 110.928 87.3147 109.87 86.743L112.969 84.4171ZM118.852 85.6833C118.927 85.6275 118.941 85.5355 118.983 85.4602L123.816 86.2996L119.558 89.4983C118.654 89.4677 117.735 89.3979 116.8 89.2362C116.102 89.1163 115.426 88.9462 114.762 88.7593L118.852 85.6833ZM125.502 86.6175C125.511 86.6119 125.508 86.6008 125.516 86.5924L130.397 87.4402C128.406 88.249 125.279 89.2501 121.702 89.4733L125.502 86.6175ZM123.422 72.085C125.212 72.7795 128.741 74.4667 130.762 77.4953C132.591 80.2395 132.759 83.4717 132.664 85.343C131.234 84.01 128.613 81.871 125.204 80.167C123.35 77.2583 123.294 73.8308 123.422 72.085ZM29.5392 150.191L4.72682 125.407H18.2875C24.4941 125.407 29.5392 130.449 29.5392 136.643V150.191ZM32.3116 152.146V136.643C32.3116 128.921 26.0213 122.641 18.2903 122.641H2.76965V14.0054C2.76965 7.80587 7.81755 2.76649 14.0185 2.76649H110.638C116.844 2.76649 121.89 7.80866 121.89 14.0054V69.5249L121.823 69.5054L121.616 70.5568C121.574 70.7604 120.837 74.8515 122.437 78.9873C121.183 78.53 119.882 78.1284 118.486 77.8886C109.582 76.3547 101.625 80.7833 101.293 80.9702L100.224 81.5781L101.045 82.4901C101.262 82.7299 105.612 87.4374 112.134 89.9362C112.26 90.1007 112.45 90.1872 112.642 90.1872C112.665 90.1872 112.687 90.1677 112.71 90.1649C113.902 90.5888 115.141 90.9569 116.462 91.1828C117.777 91.4087 119.07 91.5035 120.32 91.5035C120.859 91.5035 121.373 91.4533 121.892 91.4198V98.3416C120.89 97.9177 119.899 97.4492 118.927 96.9835C115.446 95.313 111.864 93.5951 107.893 94.3453C92.4006 97.3154 80.4119 108.245 77.3491 122.186C75.0317 132.739 77.9968 143.554 84.8511 152.146H32.3116ZM157.2 139.688C155.005 149.686 148.173 166.559 127.097 167.228C125.033 167.317 122.339 166.163 119.617 165.075C117.665 164.297 115.823 163.558 114.195 163.201C112.629 162.858 110.68 162.805 108.616 162.752C106.073 162.688 103.192 162.61 101.659 161.887C85.5519 154.28 76.6706 138.202 80.0545 122.783C82.9246 109.723 93.7938 99.8699 108.418 97.0644C108.89 96.9723 109.362 96.9305 109.837 96.9305C112.414 96.9305 115.01 98.1743 117.732 99.4795C120.013 100.575 122.373 101.705 124.991 102.279C127.272 102.781 129.581 102.313 131.812 101.856C134.166 101.376 136.391 100.921 137.994 101.805C152.682 109.896 160.402 125.12 157.2 139.688Z" fill="url(#paint0_linear_16_86)"/>
<path d="M136.528 105.515C134.56 104.463 132.231 104.898 129.984 105.319C128.25 105.646 126.457 105.986 124.866 105.632C122.817 105.183 120.873 104.274 118.994 103.395C115.932 101.962 113.045 100.606 109.845 101.172C96.5552 103.515 86.733 112.104 84.2062 123.592C81.2328 137.137 89.4133 151.329 104.105 158.103C105.771 158.87 108.337 158.959 110.817 159.043C112.503 159.099 114.1 159.152 115.278 159.411C116.537 159.687 118.062 160.284 119.673 160.917C122.144 161.887 124.696 162.889 126.714 162.889C126.762 162.889 126.803 162.889 126.848 162.886C140.99 162.576 150.979 153.85 154.251 138.947C157.071 126.141 149.946 112.704 136.528 105.515ZM153.017 138.676C149.879 152.963 140.333 161.327 126.823 161.625C125.011 161.648 122.546 160.688 120.136 159.743C118.475 159.09 116.906 158.474 115.549 158.176C114.256 157.891 112.606 157.838 110.858 157.777C108.502 157.699 106.065 157.615 104.632 156.954C90.4882 150.431 82.5952 136.824 85.4431 123.865C87.8553 112.885 97.2895 104.67 110.06 102.422C110.484 102.346 110.906 102.313 111.328 102.313C113.692 102.313 116.015 103.401 118.455 104.541C120.396 105.45 122.403 106.39 124.589 106.87C126.438 107.271 128.356 106.915 130.212 106.566C132.337 106.167 134.345 105.788 135.925 106.633C148.841 113.549 155.709 126.428 153.017 138.676Z" fill="url(#paint1_linear_16_86)"/>
<path d="M114.781 124.835L114.2 124.894C114.111 125.011 112.034 127.825 112.349 131.079C112.662 134.331 115.236 136.696 115.348 136.797L115.929 136.738C116.018 136.621 118.095 133.807 117.78 130.555C117.467 127.301 114.893 124.936 114.781 124.835ZM115.552 135.879C114.873 135.151 113.357 133.294 113.134 131.001C112.916 128.715 114.05 126.595 114.577 125.75C115.256 126.478 116.772 128.338 116.995 130.63C117.213 132.917 116.079 135.034 115.552 135.879Z" fill="url(#paint2_linear_16_86)"/>
<path d="M125.17 127.027C125.033 127.083 121.775 128.349 120.295 131.266V131.269C118.821 134.186 119.737 137.558 119.773 137.7L120.298 137.965C120.435 137.909 123.693 136.643 125.17 133.726C126.644 130.809 125.731 127.434 125.695 127.292L125.17 127.027ZM124.461 133.372C123.425 135.419 121.334 136.604 120.438 137.033C120.253 136.057 119.963 133.681 121.004 131.626C122.04 129.573 124.134 128.391 125.028 127.959C125.212 128.935 125.5 131.316 124.461 133.372Z" fill="url(#paint3_linear_16_86)"/>
<path d="M42.5415 40.3178C43.5941 39.1939 44.3786 37.9445 44.8979 36.5669C45.42 35.192 45.6629 33.7558 45.6406 32.2582C45.6155 30.7829 45.3307 29.3857 44.7862 28.0638C44.2418 26.7419 43.4433 25.5372 42.3907 24.4467C41.3409 23.3563 39.9533 22.4918 38.2307 21.8531C36.508 21.2145 34.5453 20.8938 32.3396 20.8938H21.8892V44.013H32.3396C34.5704 44.013 36.5666 43.6783 38.3284 43.0062C40.0845 42.3369 41.4889 41.4389 42.5415 40.3178ZM32.334 39.8214H26.8645V25.024H32.3368C35.0227 25.024 37.0692 25.724 38.4764 27.1212C39.8807 28.5212 40.6094 30.2196 40.6597 32.2247C40.7127 34.3163 40.0371 36.1067 38.6439 37.5904C37.2507 39.0768 35.1483 39.8214 32.334 39.8214Z" fill="url(#paint4_linear_16_86)"/>
<path d="M54.3796 20.8966H49.4015V44.0158H54.3796V20.8966Z" fill="url(#paint5_linear_16_86)"/>
<path d="M78.9349 39.7238H63.9978V34.5032H78.4045V30.4427H63.9978V25.1216H78.9349V20.8966H59.0169V44.0158H78.9349V39.7238Z" fill="url(#paint6_linear_16_86)"/>
<path d="M91.245 44.0158H96.2622V24.8595H104.702V20.8966H82.8104V24.8595H91.245V44.0158Z" fill="url(#paint7_linear_16_86)"/>
<path d="M36.9521 62.2937C36.9521 62.7287 37.3067 63.0829 37.7422 63.0829H105.975C106.411 63.0829 106.766 62.7287 106.766 62.2937C106.766 61.8586 106.411 61.5044 105.975 61.5044H37.7422C37.3067 61.5044 36.9521 61.8586 36.9521 62.2937Z" fill="url(#paint8_linear_16_86)"/>
<path d="M105.978 73.2227H37.7422C37.3067 73.2227 36.9521 73.5769 36.9521 74.012C36.9521 74.447 37.3067 74.8012 37.7422 74.8012H105.975C106.411 74.8012 106.766 74.447 106.766 74.012C106.766 73.5769 106.414 73.2227 105.978 73.2227Z" fill="url(#paint9_linear_16_86)"/>
<path d="M95.8378 84.9415H37.7422C37.3067 84.9415 36.9521 85.2957 36.9521 85.7307C36.9521 86.1658 37.3067 86.5199 37.7422 86.5199H95.8378C96.2733 86.5199 96.6279 86.1658 96.6279 85.7307C96.6279 85.2957 96.2733 84.9415 95.8378 84.9415Z" fill="url(#paint10_linear_16_86)"/>
<path d="M74.1803 96.6627H37.0135C36.5779 96.6627 36.2233 97.0169 36.2233 97.4519C36.2233 97.887 36.5779 98.2412 37.0135 98.2412H74.1803C74.6159 98.2412 74.9704 97.887 74.9704 97.4519C74.9704 97.0169 74.6159 96.6627 74.1803 96.6627Z" fill="url(#paint11_linear_16_86)"/>
<path d="M74.1803 108.381H37.0135C36.5779 108.381 36.2233 108.736 36.2233 109.171C36.2233 109.606 36.5779 109.96 37.0135 109.96H74.1803C74.6159 109.96 74.9704 109.606 74.9704 109.171C74.9704 108.736 74.6159 108.381 74.1803 108.381Z" fill="url(#paint12_linear_16_86)"/>
<path d="M22.2102 57.0785L21.4201 57.8677V64.3879L22.2102 65.1772H28.7407L29.5308 64.3879V57.8677L28.7407 57.0785H22.2102ZM27.9505 63.5987H23.0031V58.6597H27.9505V63.5987Z" fill="url(#paint13_linear_16_86)"/>
<path d="M22.2102 69.2096L21.4201 69.9989V76.5219L22.2102 77.3111H28.7407L29.5308 76.5219V69.9989L28.7407 69.2096H22.2102ZM27.9505 75.7327H23.0031V70.7909H27.9505V75.7327Z" fill="url(#paint14_linear_16_86)"/>
<path d="M22.2102 81.3383L21.4201 82.1275V88.6506L22.2102 89.4398H28.7407L29.5308 88.6506V82.1275L28.7407 81.3383H22.2102ZM27.9505 87.8613H23.0031V82.9196H27.9505V87.8613Z" fill="url(#paint15_linear_16_86)"/>
<path d="M22.2102 93.2297L21.4201 94.0189V100.539L22.2102 101.328H28.7407L29.5308 100.539V94.0189L28.7407 93.2297H22.2102ZM27.9505 99.7499H23.0031V94.811H27.9505V99.7499Z" fill="url(#paint16_linear_16_86)"/>
<path d="M22.2102 105.361L21.4201 106.15V112.67L22.2102 113.46H28.7407L29.5308 112.67V106.15L28.7407 105.361H22.2102ZM27.9505 111.881H23.0031V106.942H27.9505V111.881Z" fill="url(#paint17_linear_16_86)"/>
<path d="M139.328 99.3819C136.835 98.0098 134.001 98.5843 131.257 99.1448C129.841 99.4349 128.392 99.7193 127.052 99.7165C129.956 93.5923 135.14 88.3745 141.933 84.7769C141.886 85.0809 141.942 85.4072 142.112 85.6944C142.506 86.3498 143.351 86.5645 144.01 86.1741C145.652 85.198 146.194 83.1538 145.25 81.5196L143.488 80.9451C140.213 82.3953 137.234 84.1857 134.59 86.2466C134.78 84.3279 134.853 80.0722 132.41 76.4021C130.254 73.1671 126.778 71.3376 124.665 70.4592V14.0054C124.665 6.28039 118.374 0 110.643 0H14.0185C6.28754 0 0 6.28318 0 14.0054V124.024L0.407629 125.003L29.9496 154.511L30.9296 154.918H87.2857C90.9069 158.711 95.3406 161.963 100.478 164.389C102.536 165.362 105.593 165.443 108.547 165.518C110.476 165.571 112.299 165.616 113.606 165.903C115.01 166.21 116.749 166.907 118.592 167.643C121.487 168.804 124.478 170 126.949 170C127.03 170 127.111 170 127.189 169.997C143.955 169.465 155.879 158.633 159.911 140.285C163.373 124.506 155.103 108.069 139.328 99.3819ZM124.662 98.3277V91.1103C127.303 90.6641 129.579 89.9195 131.17 89.2669C128.451 91.972 126.259 95.023 124.662 98.3277ZM111.252 84.1187L108.667 86.0597C106.883 84.9777 105.411 83.8343 104.359 82.9223L111.252 84.1187ZM104.495 81.6618C107.357 80.4961 112.62 78.8758 118.148 79.8407C123.718 80.8001 128.266 84.1327 130.642 86.1992L104.495 81.6618ZM112.969 84.4171L117.403 85.1869L113.296 88.2713C112.076 87.8306 110.928 87.3147 109.87 86.743L112.969 84.4171ZM118.852 85.6833C118.927 85.6275 118.941 85.5355 118.983 85.4602L123.816 86.2996L119.558 89.4983C118.654 89.4677 117.735 89.3979 116.8 89.2362C116.102 89.1163 115.426 88.9462 114.762 88.7593L118.852 85.6833ZM125.502 86.6175C125.511 86.6119 125.508 86.6008 125.516 86.5924L130.397 87.4402C128.406 88.249 125.279 89.2501 121.702 89.4733L125.502 86.6175ZM123.422 72.085C125.212 72.7795 128.741 74.4667 130.762 77.4953C132.591 80.2395 132.759 83.4717 132.664 85.343C131.234 84.01 128.613 81.871 125.204 80.167C123.35 77.2583 123.294 73.8308 123.422 72.085ZM29.5392 150.191L4.72682 125.407H18.2875C24.4941 125.407 29.5392 130.449 29.5392 136.643V150.191ZM32.3116 152.146V136.643C32.3116 128.921 26.0213 122.641 18.2903 122.641H2.76965V14.0054C2.76965 7.80587 7.81755 2.76649 14.0185 2.76649H110.638C116.844 2.76649 121.89 7.80866 121.89 14.0054V69.5249L121.823 69.5054L121.616 70.5568C121.574 70.7604 120.837 74.8515 122.437 78.9873C121.183 78.53 119.882 78.1284 118.486 77.8886C109.582 76.3547 101.625 80.7833 101.293 80.9702L100.224 81.5781L101.045 82.4901C101.262 82.7299 105.612 87.4374 112.134 89.9362C112.26 90.1007 112.45 90.1872 112.642 90.1872C112.665 90.1872 112.687 90.1677 112.71 90.1649C113.902 90.5888 115.141 90.9569 116.462 91.1828C117.777 91.4087 119.07 91.5035 120.32 91.5035C120.859 91.5035 121.373 91.4533 121.892 91.4198V98.3416C120.89 97.9177 119.899 97.4492 118.927 96.9835C115.446 95.313 111.864 93.5951 107.893 94.3453C92.4006 97.3154 80.4119 108.245 77.3491 122.186C75.0317 132.739 77.9968 143.554 84.8511 152.146H32.3116ZM157.2 139.688C155.005 149.686 148.173 166.559 127.097 167.228C125.033 167.317 122.339 166.163 119.617 165.075C117.665 164.297 115.823 163.558 114.195 163.201C112.629 162.858 110.68 162.805 108.616 162.752C106.073 162.688 103.192 162.61 101.659 161.887C85.5519 154.28 76.6706 138.202 80.0545 122.783C82.9246 109.723 93.7938 99.8699 108.418 97.0644C108.89 96.9723 109.362 96.9305 109.837 96.9305C112.414 96.9305 115.01 98.1743 117.732 99.4795C120.013 100.575 122.373 101.705 124.991 102.279C127.272 102.781 129.581 102.313 131.812 101.856C134.166 101.376 136.391 100.921 137.994 101.805C152.682 109.896 160.402 125.12 157.2 139.688Z" stroke="url(#paint18_linear_16_86)" stroke-width="2.41579" mask="url(#path-1-inside-1_16_86)"/>
<path d="M136.528 105.515C134.56 104.463 132.231 104.898 129.984 105.319C128.25 105.646 126.457 105.986 124.866 105.632C122.817 105.183 120.873 104.274 118.994 103.395C115.932 101.962 113.045 100.606 109.845 101.172C96.5552 103.515 86.733 112.104 84.2062 123.592C81.2328 137.137 89.4133 151.329 104.105 158.103C105.771 158.87 108.337 158.959 110.817 159.043C112.503 159.099 114.1 159.152 115.278 159.411C116.537 159.687 118.062 160.284 119.673 160.917C122.144 161.887 124.696 162.889 126.714 162.889C126.762 162.889 126.803 162.889 126.848 162.886C140.99 162.576 150.979 153.85 154.251 138.947C157.071 126.141 149.946 112.704 136.528 105.515ZM153.017 138.676C149.879 152.963 140.333 161.327 126.823 161.625C125.011 161.648 122.546 160.688 120.136 159.743C118.475 159.09 116.906 158.474 115.549 158.176C114.256 157.891 112.606 157.838 110.858 157.777C108.502 157.699 106.065 157.615 104.632 156.954C90.4882 150.431 82.5952 136.824 85.4431 123.865C87.8553 112.885 97.2895 104.67 110.06 102.422C110.484 102.346 110.906 102.313 111.328 102.313C113.692 102.313 116.015 103.401 118.455 104.541C120.396 105.45 122.403 106.39 124.589 106.87C126.438 107.271 128.356 106.915 130.212 106.566C132.337 106.167 134.345 105.788 135.925 106.633C148.841 113.549 155.709 126.428 153.017 138.676Z" stroke="url(#paint19_linear_16_86)" stroke-width="2.41579" mask="url(#path-1-inside-1_16_86)"/>
<path d="M114.781 124.835L114.2 124.894C114.111 125.011 112.034 127.825 112.349 131.079C112.662 134.331 115.236 136.696 115.348 136.797L115.929 136.738C116.018 136.621 118.095 133.807 117.78 130.555C117.467 127.301 114.893 124.936 114.781 124.835ZM115.552 135.879C114.873 135.151 113.357 133.294 113.134 131.001C112.916 128.715 114.05 126.595 114.577 125.75C115.256 126.478 116.772 128.338 116.995 130.63C117.213 132.917 116.079 135.034 115.552 135.879Z" stroke="url(#paint20_linear_16_86)" stroke-width="2.41579" mask="url(#path-1-inside-1_16_86)"/>
<path d="M125.17 127.027C125.033 127.083 121.775 128.349 120.295 131.266V131.269C118.821 134.186 119.737 137.558 119.773 137.7L120.298 137.965C120.435 137.909 123.693 136.643 125.17 133.726C126.644 130.809 125.731 127.434 125.695 127.292L125.17 127.027ZM124.461 133.372C123.425 135.419 121.334 136.604 120.438 137.033C120.253 136.057 119.963 133.681 121.004 131.626C122.04 129.573 124.134 128.391 125.028 127.959C125.212 128.935 125.5 131.316 124.461 133.372Z" stroke="url(#paint21_linear_16_86)" stroke-width="2.41579" mask="url(#path-1-inside-1_16_86)"/>
<path d="M42.5415 40.3178C43.5941 39.1939 44.3786 37.9445 44.8979 36.5669C45.42 35.192 45.6629 33.7558 45.6406 32.2582C45.6155 30.7829 45.3307 29.3857 44.7862 28.0638C44.2418 26.7419 43.4433 25.5372 42.3907 24.4467C41.3409 23.3563 39.9533 22.4918 38.2307 21.8531C36.508 21.2145 34.5453 20.8938 32.3396 20.8938H21.8892V44.013H32.3396C34.5704 44.013 36.5666 43.6783 38.3284 43.0062C40.0845 42.3369 41.4889 41.4389 42.5415 40.3178ZM32.334 39.8214H26.8645V25.024H32.3368C35.0227 25.024 37.0692 25.724 38.4764 27.1212C39.8807 28.5212 40.6094 30.2196 40.6597 32.2247C40.7127 34.3163 40.0371 36.1067 38.6439 37.5904C37.2507 39.0768 35.1483 39.8214 32.334 39.8214Z" stroke="url(#paint22_linear_16_86)" stroke-width="2.41579" mask="url(#path-1-inside-1_16_86)"/>
<path d="M54.3796 20.8966H49.4015V44.0158H54.3796V20.8966Z" stroke="url(#paint23_linear_16_86)" stroke-width="2.41579" mask="url(#path-1-inside-1_16_86)"/>
<path d="M78.9349 39.7238H63.9978V34.5032H78.4045V30.4427H63.9978V25.1216H78.9349V20.8966H59.0169V44.0158H78.9349V39.7238Z" stroke="url(#paint24_linear_16_86)" stroke-width="2.41579" mask="url(#path-1-inside-1_16_86)"/>
<path d="M91.245 44.0158H96.2622V24.8595H104.702V20.8966H82.8104V24.8595H91.245V44.0158Z" stroke="url(#paint25_linear_16_86)" stroke-width="2.41579" mask="url(#path-1-inside-1_16_86)"/>
<path d="M36.9521 62.2937C36.9521 62.7287 37.3067 63.0829 37.7422 63.0829H105.975C106.411 63.0829 106.766 62.7287 106.766 62.2937C106.766 61.8586 106.411 61.5044 105.975 61.5044H37.7422C37.3067 61.5044 36.9521 61.8586 36.9521 62.2937Z" stroke="url(#paint26_linear_16_86)" stroke-width="2.41579" mask="url(#path-1-inside-1_16_86)"/>
<path d="M105.978 73.2227H37.7422C37.3067 73.2227 36.9521 73.5769 36.9521 74.012C36.9521 74.447 37.3067 74.8012 37.7422 74.8012H105.975C106.411 74.8012 106.766 74.447 106.766 74.012C106.766 73.5769 106.414 73.2227 105.978 73.2227Z" stroke="url(#paint27_linear_16_86)" stroke-width="2.41579" mask="url(#path-1-inside-1_16_86)"/>
<path d="M95.8378 84.9415H37.7422C37.3067 84.9415 36.9521 85.2957 36.9521 85.7307C36.9521 86.1658 37.3067 86.5199 37.7422 86.5199H95.8378C96.2733 86.5199 96.6279 86.1658 96.6279 85.7307C96.6279 85.2957 96.2733 84.9415 95.8378 84.9415Z" stroke="url(#paint28_linear_16_86)" stroke-width="2.41579" mask="url(#path-1-inside-1_16_86)"/>
<path d="M74.1803 96.6627H37.0135C36.5779 96.6627 36.2233 97.0169 36.2233 97.4519C36.2233 97.887 36.5779 98.2412 37.0135 98.2412H74.1803C74.6159 98.2412 74.9704 97.887 74.9704 97.4519C74.9704 97.0169 74.6159 96.6627 74.1803 96.6627Z" stroke="url(#paint29_linear_16_86)" stroke-width="2.41579" mask="url(#path-1-inside-1_16_86)"/>
<path d="M74.1803 108.381H37.0135C36.5779 108.381 36.2233 108.736 36.2233 109.171C36.2233 109.606 36.5779 109.96 37.0135 109.96H74.1803C74.6159 109.96 74.9704 109.606 74.9704 109.171C74.9704 108.736 74.6159 108.381 74.1803 108.381Z" stroke="url(#paint30_linear_16_86)" stroke-width="2.41579" mask="url(#path-1-inside-1_16_86)"/>
<path d="M22.2102 57.0785L21.4201 57.8677V64.3879L22.2102 65.1772H28.7407L29.5308 64.3879V57.8677L28.7407 57.0785H22.2102ZM27.9505 63.5987H23.0031V58.6597H27.9505V63.5987Z" stroke="url(#paint31_linear_16_86)" stroke-width="2.41579" mask="url(#path-1-inside-1_16_86)"/>
<path d="M22.2102 69.2096L21.4201 69.9989V76.5219L22.2102 77.3111H28.7407L29.5308 76.5219V69.9989L28.7407 69.2096H22.2102ZM27.9505 75.7327H23.0031V70.7909H27.9505V75.7327Z" stroke="url(#paint32_linear_16_86)" stroke-width="2.41579" mask="url(#path-1-inside-1_16_86)"/>
<path d="M22.2102 81.3383L21.4201 82.1275V88.6506L22.2102 89.4398H28.7407L29.5308 88.6506V82.1275L28.7407 81.3383H22.2102ZM27.9505 87.8613H23.0031V82.9196H27.9505V87.8613Z" stroke="url(#paint33_linear_16_86)" stroke-width="2.41579" mask="url(#path-1-inside-1_16_86)"/>
<path d="M22.2102 93.2297L21.4201 94.0189V100.539L22.2102 101.328H28.7407L29.5308 100.539V94.0189L28.7407 93.2297H22.2102ZM27.9505 99.7499H23.0031V94.811H27.9505V99.7499Z" stroke="url(#paint34_linear_16_86)" stroke-width="2.41579" mask="url(#path-1-inside-1_16_86)"/>
<path d="M22.2102 105.361L21.4201 106.15V112.67L22.2102 113.46H28.7407L29.5308 112.67V106.15L28.7407 105.361H22.2102ZM27.9505 111.881H23.0031V106.942H27.9505V111.881Z" stroke="url(#paint35_linear_16_86)" stroke-width="2.41579" mask="url(#path-1-inside-1_16_86)"/>
<defs>
<linearGradient id="paint0_linear_16_86" x1="0.203162" y1="61.201" x2="123.028" y2="60.776" gradientUnits="userSpaceOnUse">
<stop stop-color="#ED4881"/>
<stop offset="1" stop-color="#EF326A"/>
</linearGradient>
<linearGradient id="paint1_linear_16_86" x1="0.203162" y1="61.201" x2="123.028" y2="60.776" gradientUnits="userSpaceOnUse">
<stop stop-color="#ED4881"/>
<stop offset="1" stop-color="#EF326A"/>
</linearGradient>
<linearGradient id="paint2_linear_16_86" x1="0.203162" y1="61.201" x2="123.028" y2="60.776" gradientUnits="userSpaceOnUse">
<stop stop-color="#ED4881"/>
<stop offset="1" stop-color="#EF326A"/>
</linearGradient>
<linearGradient id="paint3_linear_16_86" x1="0.203162" y1="61.201" x2="123.028" y2="60.776" gradientUnits="userSpaceOnUse">
<stop stop-color="#ED4881"/>
<stop offset="1" stop-color="#EF326A"/>
</linearGradient>
<linearGradient id="paint4_linear_16_86" x1="0.203162" y1="61.201" x2="123.028" y2="60.776" gradientUnits="userSpaceOnUse">
<stop stop-color="#ED4881"/>
<stop offset="1" stop-color="#EF326A"/>
</linearGradient>
<linearGradient id="paint5_linear_16_86" x1="0.203162" y1="61.201" x2="123.028" y2="60.776" gradientUnits="userSpaceOnUse">
<stop stop-color="#ED4881"/>
<stop offset="1" stop-color="#EF326A"/>
</linearGradient>
<linearGradient id="paint6_linear_16_86" x1="0.203162" y1="61.201" x2="123.028" y2="60.776" gradientUnits="userSpaceOnUse">
<stop stop-color="#ED4881"/>
<stop offset="1" stop-color="#EF326A"/>
</linearGradient>
<linearGradient id="paint7_linear_16_86" x1="0.203162" y1="61.201" x2="123.028" y2="60.776" gradientUnits="userSpaceOnUse">
<stop stop-color="#ED4881"/>
<stop offset="1" stop-color="#EF326A"/>
</linearGradient>
<linearGradient id="paint8_linear_16_86" x1="0.203162" y1="61.201" x2="123.028" y2="60.776" gradientUnits="userSpaceOnUse">
<stop stop-color="#ED4881"/>
<stop offset="1" stop-color="#EF326A"/>
</linearGradient>
<linearGradient id="paint9_linear_16_86" x1="0.203162" y1="61.201" x2="123.028" y2="60.776" gradientUnits="userSpaceOnUse">
<stop stop-color="#ED4881"/>
<stop offset="1" stop-color="#EF326A"/>
</linearGradient>
<linearGradient id="paint10_linear_16_86" x1="0.203162" y1="61.201" x2="123.028" y2="60.776" gradientUnits="userSpaceOnUse">
<stop stop-color="#ED4881"/>
<stop offset="1" stop-color="#EF326A"/>
</linearGradient>
<linearGradient id="paint11_linear_16_86" x1="0.203162" y1="61.201" x2="123.028" y2="60.776" gradientUnits="userSpaceOnUse">
<stop stop-color="#ED4881"/>
<stop offset="1" stop-color="#EF326A"/>
</linearGradient>
<linearGradient id="paint12_linear_16_86" x1="0.203162" y1="61.201" x2="123.028" y2="60.776" gradientUnits="userSpaceOnUse">
<stop stop-color="#ED4881"/>
<stop offset="1" stop-color="#EF326A"/>
</linearGradient>
<linearGradient id="paint13_linear_16_86" x1="0.203162" y1="61.201" x2="123.028" y2="60.776" gradientUnits="userSpaceOnUse">
<stop stop-color="#ED4881"/>
<stop offset="1" stop-color="#EF326A"/>
</linearGradient>
<linearGradient id="paint14_linear_16_86" x1="0.203162" y1="61.201" x2="123.028" y2="60.776" gradientUnits="userSpaceOnUse">
<stop stop-color="#ED4881"/>
<stop offset="1" stop-color="#EF326A"/>
</linearGradient>
<linearGradient id="paint15_linear_16_86" x1="0.203162" y1="61.201" x2="123.028" y2="60.776" gradientUnits="userSpaceOnUse">
<stop stop-color="#ED4881"/>
<stop offset="1" stop-color="#EF326A"/>
</linearGradient>
<linearGradient id="paint16_linear_16_86" x1="0.203162" y1="61.201" x2="123.028" y2="60.776" gradientUnits="userSpaceOnUse">
<stop stop-color="#ED4881"/>
<stop offset="1" stop-color="#EF326A"/>
</linearGradient>
<linearGradient id="paint17_linear_16_86" x1="0.203162" y1="61.201" x2="123.028" y2="60.776" gradientUnits="userSpaceOnUse">
<stop stop-color="#ED4881"/>
<stop offset="1" stop-color="#EF326A"/>
</linearGradient>
<linearGradient id="paint18_linear_16_86" x1="0.203161" y1="77.351" x2="160.853" y2="77.351" gradientUnits="userSpaceOnUse">
<stop stop-color="#ED4881"/>
<stop offset="1" stop-color="#EE326A"/>
</linearGradient>
<linearGradient id="paint19_linear_16_86" x1="0.203161" y1="77.351" x2="160.853" y2="77.351" gradientUnits="userSpaceOnUse">
<stop stop-color="#ED4881"/>
<stop offset="1" stop-color="#EE326A"/>
</linearGradient>
<linearGradient id="paint20_linear_16_86" x1="0.203161" y1="77.351" x2="160.853" y2="77.351" gradientUnits="userSpaceOnUse">
<stop stop-color="#ED4881"/>
<stop offset="1" stop-color="#EE326A"/>
</linearGradient>
<linearGradient id="paint21_linear_16_86" x1="0.203161" y1="77.351" x2="160.853" y2="77.351" gradientUnits="userSpaceOnUse">
<stop stop-color="#ED4881"/>
<stop offset="1" stop-color="#EE326A"/>
</linearGradient>
<linearGradient id="paint22_linear_16_86" x1="0.203161" y1="77.351" x2="160.853" y2="77.351" gradientUnits="userSpaceOnUse">
<stop stop-color="#ED4881"/>
<stop offset="1" stop-color="#EE326A"/>
</linearGradient>
<linearGradient id="paint23_linear_16_86" x1="0.203161" y1="77.351" x2="160.853" y2="77.351" gradientUnits="userSpaceOnUse">
<stop stop-color="#ED4881"/>
<stop offset="1" stop-color="#EE326A"/>
</linearGradient>
<linearGradient id="paint24_linear_16_86" x1="0.203161" y1="77.351" x2="160.853" y2="77.351" gradientUnits="userSpaceOnUse">
<stop stop-color="#ED4881"/>
<stop offset="1" stop-color="#EE326A"/>
</linearGradient>
<linearGradient id="paint25_linear_16_86" x1="0.203161" y1="77.351" x2="160.853" y2="77.351" gradientUnits="userSpaceOnUse">
<stop stop-color="#ED4881"/>
<stop offset="1" stop-color="#EE326A"/>
</linearGradient>
<linearGradient id="paint26_linear_16_86" x1="0.203161" y1="77.351" x2="160.853" y2="77.351" gradientUnits="userSpaceOnUse">
<stop stop-color="#ED4881"/>
<stop offset="1" stop-color="#EE326A"/>
</linearGradient>
<linearGradient id="paint27_linear_16_86" x1="0.203161" y1="77.351" x2="160.853" y2="77.351" gradientUnits="userSpaceOnUse">
<stop stop-color="#ED4881"/>
<stop offset="1" stop-color="#EE326A"/>
</linearGradient>
<linearGradient id="paint28_linear_16_86" x1="0.203161" y1="77.351" x2="160.853" y2="77.351" gradientUnits="userSpaceOnUse">
<stop stop-color="#ED4881"/>
<stop offset="1" stop-color="#EE326A"/>
</linearGradient>
<linearGradient id="paint29_linear_16_86" x1="0.203161" y1="77.351" x2="160.853" y2="77.351" gradientUnits="userSpaceOnUse">
<stop stop-color="#ED4881"/>
<stop offset="1" stop-color="#EE326A"/>
</linearGradient>
<linearGradient id="paint30_linear_16_86" x1="0.203161" y1="77.351" x2="160.853" y2="77.351" gradientUnits="userSpaceOnUse">
<stop stop-color="#ED4881"/>
<stop offset="1" stop-color="#EE326A"/>
</linearGradient>
<linearGradient id="paint31_linear_16_86" x1="0.203161" y1="77.351" x2="160.853" y2="77.351" gradientUnits="userSpaceOnUse">
<stop stop-color="#ED4881"/>
<stop offset="1" stop-color="#EE326A"/>
</linearGradient>
<linearGradient id="paint32_linear_16_86" x1="0.203161" y1="77.351" x2="160.853" y2="77.351" gradientUnits="userSpaceOnUse">
<stop stop-color="#ED4881"/>
<stop offset="1" stop-color="#EE326A"/>
</linearGradient>
<linearGradient id="paint33_linear_16_86" x1="0.203161" y1="77.351" x2="160.853" y2="77.351" gradientUnits="userSpaceOnUse">
<stop stop-color="#ED4881"/>
<stop offset="1" stop-color="#EE326A"/>
</linearGradient>
<linearGradient id="paint34_linear_16_86" x1="0.203161" y1="77.351" x2="160.853" y2="77.351" gradientUnits="userSpaceOnUse">
<stop stop-color="#ED4881"/>
<stop offset="1" stop-color="#EE326A"/>
</linearGradient>
<linearGradient id="paint35_linear_16_86" x1="0.203161" y1="77.351" x2="160.853" y2="77.351" gradientUnits="userSpaceOnUse">
<stop stop-color="#ED4881"/>
<stop offset="1" stop-color="#EE326A"/>
</linearGradient>
</defs>
</svg>
