<svg width="238" height="174" viewBox="0 0 238 174" fill="none" xmlns="http://www.w3.org/2000/svg">
<mask id="path-1-outside-1_16_88" maskUnits="userSpaceOnUse" x="0" y="0" width="238" height="174" fill="black">
<rect fill="white" width="238" height="174"/>
<path d="M116.356 83.2074C116.356 101.689 101.356 116.672 82.8531 116.672C64.3501 116.672 49.3504 101.689 49.3504 83.2074C49.3504 64.7254 64.3501 49.7428 82.8531 49.7428C101.356 49.7428 116.356 64.7254 116.356 83.2074Z"/>
<path d="M207.483 133.181C207.483 139.342 202.483 144.336 196.316 144.336C190.148 144.336 185.148 139.342 185.148 133.181C185.148 127.021 190.148 122.026 196.316 122.026C202.483 122.026 207.483 127.021 207.483 133.181Z"/>
</mask>
<path d="M95.3609 150.583L95.1632 149.096L94.1532 149.23L93.9058 150.218L95.3609 150.583ZM92.234 163.076V164.576H93.4048L93.6891 163.44L92.234 163.076ZM71.6857 163.076L70.2305 163.44L70.5148 164.576H71.6857V163.076ZM68.5587 150.583L70.0138 150.218L69.7542 149.181L68.689 149.088L68.5587 150.583ZM69.4521 13.6011L69.664 15.086L70.7228 14.9349L70.925 13.8846L69.4521 13.6011ZM71.6856 2V0.5H70.4468L70.2126 1.71642L71.6856 2ZM92.2339 2L93.6858 1.62315L93.3943 0.5H92.2339V2ZM95.3608 14.0472L93.9089 14.4241L94.1636 15.4054L95.1691 15.5349L95.3608 14.0472ZM121.27 24.3097L120.407 25.5368L121.182 26.0818L122.007 25.616L121.27 24.3097ZM131.544 18.5092L132.571 17.4163L131.767 16.6605L130.806 17.203L131.544 18.5092ZM146.732 32.7874L147.997 33.5934L148.664 32.5456L147.759 31.6946L146.732 32.7874ZM139.213 41.7977C138.768 42.4964 138.973 43.4237 139.672 43.8688C140.371 44.3139 141.298 44.1084 141.743 43.4097L139.213 41.7977ZM151.199 68.9291L149.719 69.176L149.878 70.1272L150.809 70.3776L151.199 68.9291ZM162.813 72.0525H164.313V70.9026L163.203 70.6039L162.813 72.0525ZM162.813 92.5774L163.203 94.026L164.313 93.7273V92.5774H162.813ZM151.199 95.7008L150.809 94.2522L149.846 94.5112L149.712 95.4993L151.199 95.7008ZM140.478 121.134L139.285 120.224L138.663 121.039L139.197 121.914L140.478 121.134ZM146.732 131.396L147.792 132.458L148.627 131.624L148.013 130.616L146.732 131.396ZM131.544 146.567L130.725 147.824L131.744 148.487L132.604 147.628L131.544 146.567ZM122.088 138.617C121.394 138.165 120.465 138.361 120.013 139.055C119.561 139.749 119.757 140.679 120.451 141.131L122.088 138.617ZM24.7818 122.026L26.0207 122.872L26.6503 121.95L25.9473 121.082L24.7818 122.026ZM18.0813 131.843L16.8424 130.997L16.1409 132.025L17.0212 132.904L18.0813 131.843ZM32.8225 146.567L31.7624 147.628L32.6407 148.506L33.6668 147.807L32.8225 146.567ZM42.6499 139.874L43.5685 138.688L42.7066 138.021L41.8056 138.634L42.6499 139.874ZM13.1676 68.9292L13.5716 70.3737L14.524 70.1073L14.6545 69.127L13.1676 68.9292ZM2 72.0525L1.59598 70.6079L0.5 70.9145V72.0525H2ZM2 92.1313H0.5V93.2266L1.54331 93.56L2 92.1313ZM13.1676 95.7008L14.648 95.4594L14.5 94.552L13.6243 94.272L13.1676 95.7008ZM24.3352 43.0498L25.5246 43.9638L26.1934 43.0934L25.5661 42.1926L24.3352 43.0498ZM17.1879 32.7874L16.1595 31.6954L15.2174 32.5827L15.957 33.6446L17.1879 32.7874ZM32.8225 18.063L33.6018 16.7813L32.6257 16.1878L31.7941 16.971L32.8225 18.063ZM43.0967 24.3097L42.3174 25.5914L43.2088 26.1333L44.0271 25.4863L43.0967 24.3097ZM67.3482 13.9013L67.5601 15.3862L67.5601 15.3862L67.3482 13.9013ZM120.627 23.8581L121.49 22.631L121.49 22.6309L120.627 23.8581ZM151.148 68.6251L149.668 68.8717L149.668 68.8719L151.148 68.6251ZM140.84 120.659L139.648 119.749L139.647 119.749L140.84 120.659ZM44.1402 141.029L45.0588 139.843L45.0588 139.843L44.1402 141.029ZM13.2713 96.3373L14.7518 96.096L14.7518 96.0959L13.2713 96.3373ZM23.4303 44.2275L24.6197 45.1415L24.6197 45.1414L23.4303 44.2275ZM164.6 129.165L166.072 129.451L166.237 128.604L165.587 128.036L164.6 129.165ZM157.453 122.919L156.167 122.146L155.52 123.222L156.465 124.048L157.453 122.919ZM168.173 105.071L168.604 103.634L167.488 103.299L166.888 104.299L168.173 105.071ZM177.107 107.748L176.677 109.185L177.544 109.445L178.178 108.798L177.107 107.748ZM183.808 103.732L184.432 105.096L185.136 104.774L185.281 104.013L183.808 103.732ZM185.595 94.3622V92.8622H184.354L184.121 94.0812L185.595 94.3622ZM206.59 94.3622L208.063 94.0812L207.831 92.8622H206.59V94.3622ZM208.377 103.732L206.903 104.013L207.064 104.857L207.873 105.145L208.377 103.732ZM215.077 108.194L214.101 109.334L214.77 109.906L215.595 109.602L215.077 108.194ZM223.565 105.071L224.827 104.261L224.177 103.247L223.047 103.663L223.565 105.071ZM234.732 122.473L235.757 123.567L236.669 122.714L235.995 121.662L234.732 122.473ZM227.585 129.165L226.56 128.071L225.979 128.614L226.103 129.399L227.585 129.165ZM164.6 136.751L165.66 137.812L166.213 137.26L166.077 136.49L164.6 136.751ZM157.453 143.89L156.393 142.829L155.563 143.657L156.167 144.662L157.453 143.89ZM168.173 161.738L166.888 162.51L167.516 163.556L168.668 163.154L168.173 161.738ZM177.107 158.614L178.139 157.525L177.475 156.897L176.612 157.198L177.107 158.614ZM183.808 162.63L185.267 162.282L185.089 161.537L184.381 161.244L183.808 162.63ZM186.042 172L184.582 172.348L184.857 173.5H186.042V172ZM206.143 172V173.5H207.328L207.602 172.348L206.143 172ZM208.377 162.63L207.709 161.287L207.08 161.599L206.918 162.282L208.377 162.63ZM215.221 156.343C214.459 156.017 213.578 156.37 213.252 157.132C212.926 157.893 213.279 158.775 214.04 159.101L215.221 156.343ZM224.011 161.738L223.421 163.117L224.615 163.628L225.292 162.519L224.011 161.738ZM235.179 143.444L236.459 144.225L237.134 143.119L236.138 142.291L235.179 143.444ZM227.138 136.751L225.671 136.438L225.482 137.324L226.179 137.904L227.138 136.751ZM215.732 158.737C216.292 158.127 216.252 157.178 215.642 156.617C215.032 156.057 214.083 156.097 213.523 156.707L215.732 158.737ZM93.9058 150.218L90.7789 162.712L93.6891 163.44L96.816 150.947L93.9058 150.218ZM92.234 161.576H71.6857V164.576H92.234V161.576ZM73.1408 162.712L70.0138 150.218L67.1036 150.947L70.2305 163.44L73.1408 162.712ZM70.925 13.8846L73.1585 2.28358L70.2126 1.71642L67.9791 13.3175L70.925 13.8846ZM71.6856 3.5H92.2339V0.5H71.6856V3.5ZM90.782 2.37685L93.9089 14.4241L96.8127 13.6704L93.6858 1.62315L90.782 2.37685ZM122.007 25.616L132.281 19.8154L130.806 17.203L120.532 23.0035L122.007 25.616ZM130.516 19.6021L145.704 33.8803L147.759 31.6946L132.571 17.4163L130.516 19.6021ZM145.467 31.9815L139.213 41.7977L141.743 43.4097L147.997 33.5934L145.467 31.9815ZM150.809 70.3776L162.423 73.501L163.203 70.6039L151.588 67.4806L150.809 70.3776ZM161.313 72.0525V92.5774H164.313V72.0525H161.313ZM162.423 91.1289L150.809 94.2522L151.588 97.1493L163.203 94.026L162.423 91.1289ZM139.197 121.914L145.451 132.177L148.013 130.616L141.759 120.353L139.197 121.914ZM145.672 130.335L130.484 145.506L132.604 147.628L147.792 132.458L145.672 130.335ZM132.363 145.31L122.088 138.617L120.451 141.131L130.725 147.824L132.363 145.31ZM23.5429 121.181L16.8424 130.997L19.3202 132.688L26.0207 122.872L23.5429 121.181ZM17.0212 132.904L31.7624 147.628L33.8825 145.506L19.1413 130.781L17.0212 132.904ZM33.6668 147.807L43.4943 141.114L41.8056 138.634L31.9781 145.327L33.6668 147.807ZM12.7635 67.4846L1.59598 70.6079L2.40402 73.4971L13.5716 70.3737L12.7635 67.4846ZM0.5 72.0525V92.1313H3.5V72.0525H0.5ZM1.54331 93.56L12.7109 97.1296L13.6243 94.272L2.45669 90.7025L1.54331 93.56ZM25.5661 42.1926L18.4188 31.9301L15.957 33.6446L23.1043 43.9071L25.5661 42.1926ZM18.2163 33.8793L33.8509 19.1549L31.7941 16.971L16.1595 31.6954L18.2163 33.8793ZM32.0432 19.3446L42.3174 25.5914L43.8759 23.028L33.6018 16.7813L32.0432 19.3446ZM67.5601 15.3862L69.664 15.086L69.2402 12.1161L67.1363 12.4163L67.5601 15.3862ZM44.0271 25.4863C50.8406 20.0983 58.9608 16.6133 67.5601 15.3862L67.1363 12.4163C58.0119 13.7183 49.3959 17.4162 42.1663 23.1331L44.0271 25.4863ZM119.765 25.0852L120.407 25.5368L122.132 23.0827L121.49 22.631L119.765 25.0852ZM95.1691 15.5349C104.023 16.676 112.465 19.954 119.765 25.0853L121.49 22.6309C113.791 17.2196 104.889 13.7629 95.5526 12.5596L95.1691 15.5349ZM149.668 68.8719L149.719 69.176L152.678 68.6823L152.628 68.3782L149.668 68.8719ZM139.251 43.47C144.584 51.049 148.145 59.7305 149.668 68.8717L152.628 68.3784C151.03 58.7934 147.297 49.6905 141.705 41.7436L139.251 43.47ZM139.647 119.749L139.285 120.224L141.67 122.044L142.033 121.569L139.647 119.749ZM149.712 95.4993C148.517 104.317 145.049 112.673 139.648 119.749L142.032 121.569C147.749 114.08 151.42 105.235 152.685 95.9022L149.712 95.4993ZM120.31 138.685C113.028 144.281 104.275 147.884 95.1632 149.096L95.5586 152.07C105.184 150.79 114.433 146.985 122.138 141.063L120.31 138.685ZM45.0588 139.843L43.5685 138.688L41.7313 141.06L43.2216 142.214L45.0588 139.843ZM68.689 149.088C60.086 148.338 51.8821 145.128 45.0588 139.843L43.2216 142.214C50.5005 147.853 59.2518 151.277 68.4285 152.077L68.689 149.088ZM14.7518 96.0959L14.648 95.4594L11.6871 95.9422L11.7909 96.5787L14.7518 96.0959ZM25.9473 121.082C20.1039 113.87 16.2445 105.257 14.7518 96.096L11.7909 96.5785C13.3676 106.255 17.4442 115.352 23.6163 122.971L25.9473 121.082ZM24.6197 45.1414L25.5246 43.9638L23.1458 42.1359L22.2408 43.3136L24.6197 45.1414ZM14.6545 69.127C15.8157 60.3984 19.2519 52.127 24.6197 45.1415L22.2409 43.3135C16.5527 50.716 12.9113 59.4812 11.6807 68.7313L14.6545 69.127ZM165.587 128.036L158.44 121.789L156.465 124.048L163.613 130.295L165.587 128.036ZM158.738 123.691L169.459 105.843L166.888 104.299L156.167 122.146L158.738 123.691ZM167.743 106.508L176.677 109.185L177.538 106.311L168.604 103.634L167.743 106.508ZM185.281 104.013L187.068 94.6432L184.121 94.0812L182.335 103.451L185.281 104.013ZM185.595 95.8622H206.59V92.8622H185.595V95.8622ZM205.116 94.6432L206.903 104.013L209.85 103.451L208.063 94.0812L205.116 94.6432ZM215.595 109.602L224.083 106.479L223.047 103.663L214.559 106.787L215.595 109.602ZM222.302 105.881L233.47 123.283L235.995 121.662L224.827 104.261L222.302 105.881ZM233.707 121.378L226.56 128.071L228.61 130.26L235.757 123.567L233.707 121.378ZM163.54 135.689L156.393 142.829L158.513 144.951L165.66 137.812L163.54 135.689ZM156.167 144.662L166.888 162.51L169.459 160.965L158.738 143.117L156.167 144.662ZM168.668 163.154L177.603 160.03L176.612 157.198L167.678 160.322L168.668 163.154ZM182.349 162.978L184.582 172.348L187.501 171.652L185.267 162.282L182.349 162.978ZM186.042 173.5H206.143V170.5H186.042V173.5ZM207.602 172.348L209.836 162.978L206.918 162.282L204.684 171.652L207.602 172.348ZM214.04 159.101L223.421 163.117L224.602 160.359L215.221 156.343L214.04 159.101ZM225.292 162.519L236.459 144.225L233.899 142.662L222.731 160.956L225.292 162.519ZM236.138 142.291L228.098 135.598L226.179 137.904L234.219 144.596L236.138 142.291ZM183.184 102.368C180.378 103.652 178.326 104.363 176.036 106.698L178.178 108.798C179.989 106.952 181.42 106.475 184.432 105.096L183.184 102.368ZM163.127 128.879C162.476 132.234 162.589 133.99 163.123 137.011L166.077 136.49C165.593 133.748 165.505 132.371 166.072 129.451L163.127 128.879ZM176.076 159.703C178.608 162.101 180.496 162.883 183.235 164.016L184.381 161.244C181.707 160.138 180.251 159.525 178.139 157.525L176.076 159.703ZM209.044 163.973C212.137 162.435 213.686 160.963 215.732 158.737L213.523 156.707C211.606 158.792 210.345 159.976 207.709 161.287L209.044 163.973ZM228.605 137.064C229.288 133.864 229.564 132.087 229.067 128.932L226.103 129.399C226.517 132.025 226.323 133.386 225.671 136.438L228.605 137.064ZM216.053 107.055C213.668 105.012 211.946 103.412 208.88 102.319L207.873 105.145C210.325 106.019 211.629 107.216 214.101 109.334L216.053 107.055ZM113.356 83.2074C113.356 100.029 99.7025 113.672 82.8531 113.672V119.672C103.01 119.672 119.356 103.349 119.356 83.2074H113.356ZM82.8531 113.672C66.0037 113.672 52.3504 100.029 52.3504 83.2074H46.3504C46.3504 103.349 62.6965 119.672 82.8531 119.672V113.672ZM52.3504 83.2074C52.3504 66.3855 66.0037 52.7428 82.8531 52.7428V46.7428C62.6965 46.7428 46.3504 63.0653 46.3504 83.2074H52.3504ZM82.8531 52.7428C99.7025 52.7428 113.356 66.3855 113.356 83.2074H119.356C119.356 63.0653 103.01 46.7428 82.8531 46.7428V52.7428ZM204.483 133.181C204.483 137.682 200.83 141.336 196.316 141.336V147.336C204.137 147.336 210.483 141.002 210.483 133.181H204.483ZM196.316 141.336C191.802 141.336 188.148 137.682 188.148 133.181H182.148C182.148 141.002 188.494 147.336 196.316 147.336V141.336ZM188.148 133.181C188.148 128.681 191.802 125.026 196.316 125.026V119.026C188.494 119.026 182.148 125.36 182.148 133.181H188.148ZM196.316 125.026C200.83 125.026 204.483 128.681 204.483 133.181H210.483C210.483 125.36 204.137 119.026 196.316 119.026V125.026Z" fill="url(#paint0_linear_16_88)" mask="url(#path-1-outside-1_16_88)"/>
<defs>
<linearGradient id="paint0_linear_16_88" x1="1.72441" y1="81.4761" x2="235.474" y2="82.3261" gradientUnits="userSpaceOnUse">
<stop stop-color="#C6488A"/>
<stop offset="1" stop-color="#DB4886"/>
</linearGradient>
</defs>
</svg>
