<svg width="40" height="40" viewBox="0 0 40 40" fill="none" xmlns="http://www.w3.org/2000/svg">
<path d="M7.5 7.5H37.5L33.75 23.75H11.25M33.75 28.75H12.5L6.25 2.5H2.5" stroke="white" stroke-width="2" stroke-linecap="round" stroke-linejoin="round"/>
<path d="M31.25 36.25C32.6307 36.25 33.75 35.1307 33.75 33.75C33.75 32.3693 32.6307 31.25 31.25 31.25C29.8693 31.25 28.75 32.3693 28.75 33.75C28.75 35.1307 29.8693 36.25 31.25 36.25Z" stroke="white" stroke-width="2" stroke-linecap="round" stroke-linejoin="round"/>
<path d="M15 36.25C16.3807 36.25 17.5 35.1307 17.5 33.75C17.5 32.3693 16.3807 31.25 15 31.25C13.6193 31.25 12.5 32.3693 12.5 33.75C12.5 35.1307 13.6193 36.25 15 36.25Z" stroke="white" stroke-width="2" stroke-linecap="round" stroke-linejoin="round"/>
</svg>
