<svg width="28" height="28" viewBox="0 0 28 28" fill="none" xmlns="http://www.w3.org/2000/svg">
<path d="M13.7012 7.72005C10.2385 7.72005 7.42139 10.5372 7.42139 13.9999C7.42139 17.4626 10.2385 20.2798 13.7012 20.2798C17.164 20.2798 19.9811 17.4626 19.9811 13.9999C19.9811 10.5372 17.164 7.72005 13.7012 7.72005ZM13.7012 18.3768C11.2879 18.3768 9.32433 16.4134 9.32433 13.9999C9.32433 11.5865 11.2878 9.623 13.7012 9.623C16.1147 9.623 18.0782 11.5865 18.0782 13.9999C18.0782 16.4134 16.1146 18.3768 13.7012 18.3768Z" fill="#F5F6FA"/>
<path d="M13.7014 10.6935C11.8783 10.6935 10.395 12.1767 10.395 13.9999C10.395 15.8231 11.8783 17.3063 13.7014 17.3063C15.5246 17.3063 17.0079 15.8231 17.0079 13.9999C17.0079 12.1767 15.5246 10.6935 13.7014 10.6935ZM13.7014 15.4033C12.9276 15.4033 12.298 14.7737 12.298 13.9999C12.298 13.2261 12.9276 12.5964 13.7014 12.5964C14.4752 12.5964 15.1049 13.2261 15.1049 13.9999C15.1049 14.7737 14.4752 15.4033 13.7014 15.4033Z" fill="#F5F6FA"/>
<path d="M26.9272 17.1888L25.2105 16.1976C25.3476 15.4756 25.4168 14.7393 25.4168 13.9998C25.4168 13.2603 25.3476 12.5239 25.2105 11.8019L26.9272 10.8107C27.1458 10.6846 27.3052 10.4768 27.3705 10.2329C27.4359 9.98921 27.4016 9.72948 27.2755 9.51095L24.3759 4.48863C24.1131 4.03366 23.5316 3.87773 23.0761 4.14038L21.3571 5.13272C20.2379 4.16649 18.943 3.41766 17.5526 2.93309V0.951519C17.5526 0.426029 17.1266 0 16.6011 0H10.8019C10.2764 0 9.85034 0.426029 9.85034 0.951519V2.93337C8.45997 3.41795 7.1651 4.16668 6.04586 5.133L4.32685 4.14056C3.8716 3.87773 3.28973 4.03375 3.02708 4.48882L0.12746 9.51114C0.00132013 9.72967 -0.0329018 9.98939 0.0324309 10.2331C0.0977636 10.4769 0.257183 10.6847 0.475713 10.8109L2.19246 11.8021C2.05539 12.5241 1.98619 13.2605 1.98619 14C1.98619 14.7394 2.05539 15.4758 2.19246 16.1978L0.475713 17.189C0.257183 17.3151 0.0977636 17.5229 0.0324309 17.7668C-0.0329018 18.0105 0.00132013 18.2702 0.12746 18.4888L3.02708 23.5111C3.28983 23.9662 3.8715 24.1222 4.32685 23.8593L6.04586 22.867C7.1651 23.8332 8.45997 24.5821 9.85034 25.0666V27.0485C9.85034 27.574 10.2764 28 10.8019 28H16.6011C17.1266 28 17.5526 27.574 17.5526 27.0485V25.0666C18.943 24.5821 20.2379 23.8333 21.3571 22.867L23.0761 23.8593C23.5315 24.1221 24.1132 23.9661 24.3759 23.5111L27.2755 18.4888C27.4016 18.2702 27.4359 18.0105 27.3705 17.7668C27.3052 17.5228 27.1458 17.315 26.9272 17.1888ZM23.2087 11.5624C23.4111 12.3547 23.5137 13.1748 23.5137 13.9999C23.5137 14.825 23.4111 15.645 23.2087 16.4373C23.103 16.8506 23.2854 17.2837 23.6548 17.4969L25.1517 18.3611L23.2036 21.7354L21.7038 20.8696C21.3342 20.6563 20.8676 20.715 20.5627 21.0135C19.383 22.1678 17.9245 23.0109 16.3453 23.4517C15.9341 23.5664 15.6497 23.9412 15.6497 24.3681V26.0968H11.7534V24.3681C11.7534 23.9412 11.4689 23.5664 11.0577 23.4517C9.47842 23.0109 8.02008 22.1679 6.84032 21.0135C6.53515 20.715 6.06859 20.6563 5.69922 20.8696L4.19949 21.7354L2.25139 18.3611L3.74829 17.4969C4.11766 17.2837 4.30008 16.8506 4.1944 16.4373C3.99199 15.6451 3.88932 14.825 3.88932 13.9999C3.88932 13.1748 3.99199 12.3548 4.1944 11.5624C4.30008 11.1491 4.11766 10.7161 3.74829 10.5028L2.25139 9.6386L4.19949 6.2643L5.69922 7.13012C6.06896 7.34347 6.53544 7.28474 6.84032 6.98626C8.02008 5.83196 9.47852 4.98885 11.0577 4.54802C11.4689 4.43329 11.7534 4.05855 11.7534 3.63157V1.90294H15.6497V3.63157C15.6497 4.05855 15.9341 4.43329 16.3453 4.54802C17.9246 4.98885 19.383 5.83186 20.5627 6.98626C20.868 7.28483 21.3345 7.34347 21.7038 7.13012L23.2036 6.2643L25.1517 9.6386L23.6548 10.5028C23.2855 10.7161 23.1031 11.1491 23.2087 11.5624Z" fill="#F5F6FA"/>
</svg>
