<svg width="35" height="35" viewBox="0 0 35 35" fill="none" xmlns="http://www.w3.org/2000/svg">
<g clip-path="url(#clip0_232_1218)">
<path d="M16.656 12.8948C16.3678 13.0389 16.2505 13.3889 16.3946 13.677C16.4973 13.8818 16.7032 13.9996 16.9173 13.9996C17.0048 13.9996 17.0941 13.9798 17.1775 13.9384C17.2381 13.9075 18.6668 13.1759 18.6668 11.6663C18.6668 10.8415 18.231 10.4051 17.9125 10.0872C17.6267 9.80139 17.5001 9.66078 17.5001 9.33293C17.5001 9.00508 17.6267 8.86453 17.9125 8.57866C18.231 8.26072 18.6668 7.82438 18.6668 6.99956C18.6668 5.48992 17.2382 4.75841 17.1775 4.72806C16.8922 4.58573 16.544 4.70064 16.3987 4.98591C16.2529 5.27233 16.3678 5.62233 16.6525 5.76992C16.6606 5.77402 17.5001 6.21671 17.5001 6.99956C17.5001 7.32741 17.3735 7.46796 17.0877 7.75384C16.7692 8.07177 16.3334 8.50811 16.3334 9.33293C16.3334 10.1578 16.7691 10.5941 17.0877 10.912C17.3735 11.1978 17.5001 11.3384 17.5001 11.6663C17.5001 12.4491 16.6607 12.8918 16.656 12.8948Z" fill="#F5F6FA"/>
<path d="M12.8335 12.833C12.8335 13.6106 12.0057 14.0522 11.9859 14.0626C11.7006 14.2079 11.5846 14.5567 11.7281 14.8437C11.8307 15.0484 12.0366 15.1663 12.2507 15.1663C12.3382 15.1663 12.4275 15.1465 12.5109 15.105C12.5715 15.0741 14.0002 14.3426 14.0002 12.833C14.0002 12.0082 13.5645 11.5718 13.2459 11.2539C12.9601 10.9681 12.8335 10.8275 12.8335 10.4996C12.8335 9.71677 13.6723 9.27401 13.6776 9.27168C13.9657 9.12758 14.083 8.77704 13.9383 8.48883C13.7948 8.2007 13.4448 8.08285 13.1561 8.22811C13.0954 8.25846 11.6668 8.98997 11.6668 10.4996C11.6668 11.3244 12.1025 11.7608 12.4211 12.0787C12.707 12.3645 12.8335 12.5051 12.8335 12.833Z" fill="#F5F6FA"/>
<path d="M22.1669 12.833C22.1669 13.6106 21.3398 14.0522 21.3199 14.0626C21.0341 14.2079 20.9181 14.5567 21.0615 14.8437C21.1642 15.0484 21.3701 15.1663 21.5842 15.1663C21.6717 15.1663 21.761 15.1465 21.8444 15.105C21.9056 15.0741 23.3337 14.3426 23.3337 12.833C23.3337 12.0082 22.8979 11.5718 22.5794 11.2539C22.2936 10.9681 22.167 10.8275 22.167 10.4996C22.167 9.71677 23.0058 9.274 23.0111 9.27168C23.2992 9.12758 23.4165 8.77703 23.2718 8.48883C23.1271 8.2007 22.7771 8.08401 22.4896 8.22811C22.4283 8.25846 21.0003 8.98997 21.0003 10.4996C21.0003 11.3244 21.436 11.7608 21.7546 12.0787C22.0403 12.3645 22.1669 12.5051 22.1669 12.833Z" fill="#F5F6FA"/>
<path d="M8.16667 18.6663C8.56568 18.6663 8.93256 18.8705 9.1496 19.2123C9.31585 19.4741 9.65826 19.5599 9.93013 19.4071C10.3875 19.1481 10.9189 19.2245 11.284 19.5605C11.4497 19.7122 11.6872 19.7548 11.8954 19.6724C12.1031 19.5891 12.2454 19.3942 12.2606 19.1702C12.3025 18.5607 12.81 18.0829 13.4167 18.0829C13.8081 18.0829 14.1715 18.2789 14.3886 18.6067C14.605 18.9334 15.1452 18.9334 15.361 18.6067C15.7588 18.0076 16.6869 17.9236 17.1856 18.4603C17.3238 18.6091 17.5287 18.6761 17.7281 18.6353C17.9264 18.5957 18.091 18.4557 18.161 18.2655C18.3295 17.807 18.767 17.4996 19.2501 17.4996C19.8929 17.4996 20.4168 18.0228 20.4161 18.6516C20.4144 18.6639 20.408 18.7199 20.4068 18.7322C20.3916 18.9293 20.4774 19.1213 20.6354 19.2408C20.7923 19.361 21.0012 19.3931 21.1867 19.3254C21.6912 19.1434 22.1224 19.2886 22.4356 19.627C22.5738 19.7757 22.7792 19.8423 22.9781 19.802C23.1764 19.7623 23.341 19.6223 23.411 19.4322C23.5795 18.9737 24.017 18.6663 24.5 18.6663C25.0216 18.6663 25.4824 19.0215 25.62 19.5302C25.6632 19.6912 25.7741 19.8259 25.9228 19.9C26.0716 19.9747 26.2454 19.9811 26.4006 19.9193C26.9314 19.7052 27.5212 19.9123 27.8163 20.3784C27.9819 20.6409 28.3249 20.7278 28.5962 20.5738C29.0973 20.2915 29.6847 20.414 30.0347 20.8037C30.1496 20.932 30.3094 20.9973 30.4687 20.9973C30.6081 20.9973 30.7475 20.9483 30.8583 20.848C31.0981 20.6328 31.1185 20.2641 30.9032 20.0244C30.3053 19.3587 29.337 19.0852 28.4848 19.3559C27.9808 18.8454 27.2475 18.587 26.5254 18.6874C26.1188 17.9676 25.35 17.4997 24.5 17.4997C23.789 17.4997 23.1269 17.8304 22.6917 18.3677C22.3318 18.1711 21.9229 18.0697 21.5099 18.0843C21.2509 17.0786 20.3356 16.3331 19.2501 16.3331C18.5395 16.3331 17.8787 16.6627 17.4435 17.1987C16.6484 16.763 15.5827 16.8604 14.8751 17.4292C14.4668 17.1008 13.9552 16.9164 13.4168 16.9164C12.5038 16.9164 11.703 17.4531 11.3238 18.2359C10.8483 18.0533 10.3105 18.0329 9.81822 18.1886C9.38483 17.7511 8.79625 17.4997 8.1668 17.4997C7.84483 17.4997 7.5835 17.7611 7.5835 18.083C7.5835 18.405 7.84463 18.6663 8.16667 18.6663Z" fill="#F5F6FA"/>
<path d="M34.4166 22.1663H0.583308C0.261337 22.1663 0 22.4276 0 22.7496C0 24.3578 1.30839 25.6662 2.91668 25.6662H3.53212C3.82319 28.2877 6.05211 30.3329 8.75003 30.3329H26.25C28.9479 30.3329 31.1762 28.2877 31.4673 25.6662H32.0833C33.6915 25.6662 34.9999 24.3579 34.9999 22.7496C34.9999 22.4276 34.7391 22.1663 34.4166 22.1663ZM32.0832 24.4996H30.9165C30.5939 24.4996 30.3332 24.7609 30.3332 25.0829C30.3332 27.3345 28.501 29.1662 26.2499 29.1662H8.74997C6.69605 29.1662 4.99213 27.6425 4.7081 25.6662H28.5833C28.9059 25.6662 29.1666 25.4048 29.1666 25.0829C29.1666 24.7609 28.9059 24.4996 28.5833 24.4996H2.91668C2.15598 24.4996 1.50732 24.0119 1.26642 23.3329H33.7334C33.4925 24.0119 32.8439 24.4996 32.0832 24.4996Z" fill="#F5F6FA"/>
<path d="M0.353602 17.4524L8.52026 20.9523C8.59491 20.9844 8.67311 21.0002 8.74954 21.0002C8.97642 21.0002 9.19168 20.8672 9.28622 20.6461C9.41337 20.3498 9.2757 20.0067 8.97997 19.8802L0.813317 16.3802C0.51698 16.2531 0.173407 16.3907 0.0474211 16.6865C-0.0797952 16.9828 0.0578801 17.3257 0.353602 17.4524Z" fill="#F5F6FA"/>
</g>
<defs>
<clipPath id="clip0_232_1218">
<rect width="35" height="35" fill="white"/>
</clipPath>
</defs>
</svg>
