<svg width="30" height="30" viewBox="0 0 30 30" fill="none" xmlns="http://www.w3.org/2000/svg">
<path d="M24.2308 16.1538H5.76923C4.23914 16.1538 2.77171 16.7617 1.68977 17.8436C0.607828 18.9255 0 20.393 0 21.9231V30H2.30769V21.9231C2.30769 21.005 2.67239 20.1246 3.32155 19.4754C3.97072 18.8262 4.85117 18.4615 5.76923 18.4615H24.2308C25.1488 18.4615 26.0293 18.8262 26.6784 19.4754C27.3276 20.1246 27.6923 21.005 27.6923 21.9231V30H30V21.9231C30 20.393 29.3922 18.9255 28.3102 17.8436C27.2283 16.7617 25.7609 16.1538 24.2308 16.1538Z" fill="#F5F6FA"/>
<path d="M15.0002 13.8462C16.3695 13.8462 17.708 13.4401 18.8465 12.6794C19.985 11.9187 20.8723 10.8375 21.3963 9.57243C21.9203 8.3074 22.0574 6.9154 21.7903 5.57245C21.5231 4.22951 20.8638 2.99593 19.8956 2.02773C18.9274 1.05952 17.6938 0.400156 16.3508 0.133028C15.0079 -0.1341 13.6159 0.00299967 12.3509 0.526991C11.0859 1.05098 10.0046 1.93833 9.2439 3.07682C8.48318 4.21532 8.07715 5.55382 8.07715 6.92308C8.07715 8.75919 8.80654 10.5201 10.1049 11.8184C11.4032 13.1168 13.1641 13.8462 15.0002 13.8462ZM15.0002 2.3077C15.9131 2.3077 16.8054 2.57838 17.5644 3.08553C18.3234 3.59267 18.915 4.3135 19.2643 5.15685C19.6136 6.0002 19.705 6.9282 19.5269 7.8235C19.3488 8.71879 18.9093 9.54118 18.2638 10.1866C17.6183 10.8321 16.7959 11.2717 15.9006 11.4498C15.0053 11.6279 14.0773 11.5365 13.234 11.1871C12.3906 10.8378 11.6698 10.2462 11.1627 9.48725C10.6555 8.72825 10.3848 7.83592 10.3848 6.92308C10.3848 5.699 10.8711 4.52506 11.7367 3.65951C12.6022 2.79396 13.7761 2.3077 15.0002 2.3077Z" fill="#F5F6FA"/>
</svg>
